<?xml version="1.0" encoding="UTF-8"?>
<svg width="43px" height="36px" viewBox="0 0 43 36" version="1.1" xmlns="http://www.w3.org/2000/svg" xmlns:xlink="http://www.w3.org/1999/xlink">
    <!-- Generator: Sketch 49.3 (51167) - http://www.bohemiancoding.com/sketch -->
    <title>archive</title>
    <desc>Created with Sketch.</desc>
    <defs></defs>
    <g id="Page-1" stroke="none" stroke-width="1" fill="none" fill-rule="evenodd">
        <g id="Profile" transform="translate(-67.000000, -547.000000)" fill="#53555B">
            <g id="Content" transform="translate(0.000000, 130.000000)">
                <g id="archive" transform="translate(68.100334, 418.103896)">
                    <path d="M40.8064978,9.61781076 L38.4061156,9.61781076 L38.4061156,3.60667904 C38.4061156,2.94425232 37.86843,2.40445269 37.2059245,2.40445269 L3.60057334,2.40445269 C2.93806785,2.40445269 2.40038223,2.94425232 2.40038223,3.60667904 L2.40038223,9.61781076 L0,9.61781076 L0,3.60667904 C0,1.61819666 1.61545724,0 3.60057334,0 L37.2059245,0 C39.1910406,0 40.8064978,1.61819666 40.8064978,3.60667904 L40.8064978,9.61781076" id="Fill-180" stroke="#53555B"></path>
                    <path d="M34.8055423,33.6623377 L6.00095557,33.6623377 C4.01583946,33.6623377 2.40038223,32.044141 2.40038223,30.0556586 L2.40038223,9.61781076 L4.80076445,9.61781076 L4.80076445,30.0556586 C4.80076445,30.7180853 5.33845007,31.257885 6.00095557,31.257885 L34.8055423,31.257885 C35.4680478,31.257885 36.0057334,30.7180853 36.0057334,30.0556586 L36.0057334,9.61781076 L38.4061156,9.61781076 L38.4061156,30.0556586 C38.4061156,32.044141 36.7906584,33.6623377 34.8055423,33.6623377" id="Fill-181" stroke="#53555B"></path>
                    <path d="M25.2040134,17.0355473 L15.6024845,17.0355473 C14.9387788,17.0355473 14.4022934,16.4511691 14.4022934,15.7311317 C14.4022934,15.0110943 14.9387788,14.4267161 15.6024845,14.4267161 L25.2040134,14.4267161 C25.8677191,14.4267161 26.4042045,15.0110943 26.4042045,15.7311317 C26.4042045,16.4511691 25.8677191,17.0355473 25.2040134,17.0355473" id="Fill-182"></path>
                    <polygon id="Fill-183" points="0 7.21335807 40.8064978 7.21335807 40.8064978 9.82218926 0 9.82218926"></polygon>
                </g>
            </g>
        </g>
    </g>
</svg>