<?xml version="1.0" encoding="UTF-8"?>
<svg width="42px" height="38px" viewBox="0 0 42 38" version="1.1" xmlns="http://www.w3.org/2000/svg" xmlns:xlink="http://www.w3.org/1999/xlink">
    <!-- Generator: Sketch 49.3 (51167) - http://www.bohemiancoding.com/sketch -->
    <title>Me</title>
    <desc>Created with Sketch.</desc>
    <defs></defs>
    <g id="Page-1" stroke="none" stroke-width="1" fill="none" fill-rule="evenodd">
        <g id="Profile" transform="translate(-68.000000, -653.000000)" stroke="#53555B" stroke-width="3.78">
            <g id="Content" transform="translate(0.000000, 130.000000)">
                <path d="M107.130821,557.998898 C107.10741,557.496403 106.976797,556.888566 106.737751,556.175386 C106.499937,555.462206 106.167244,554.895536 105.739672,554.475378 C105.334279,554.066116 104.525959,553.615687 103.312245,553.1253 C102.099764,552.633702 100.725866,552.116677 99.1917813,551.573014 C97.657697,551.02935 96.5265409,550.576499 95.8020095,550.21446 C94.8975775,549.759187 94.1964579,549.089597 93.6961862,548.206901 C93.1971468,547.325415 92.9470109,546.410026 92.9470109,545.463156 C92.9470109,544.820204 93.3400815,544.061012 94.1249905,543.18437 C94.5414728,542.716989 94.9333112,541.991701 95.3017379,541.010927 C96.3959281,540.577449 96.9430232,539.671747 96.9430232,538.292609 C96.9430232,537.276721 96.7705158,536.545379 96.4255008,536.101004 C96.5216121,535.459263 96.6288132,534.471224 96.747104,533.138098 C96.8308934,532.145216 96.6546893,531.154755 96.2209563,530.166716 C95.7872232,529.179888 95.1945368,528.317776 94.4453615,527.58159 C93.6961862,526.844194 92.8127015,526.246043 91.7961397,525.783505 C90.7795778,525.322178 89.7297466,525.090909 88.683612,525.090909 C87.6362453,525.090909 86.5876463,525.322178 85.5710844,525.783505 C84.5532903,526.246043 83.6710379,526.844194 82.9218626,527.58159 C82.1714551,528.317776 81.5800009,529.179888 81.1462678,530.166716 C80.7125348,531.154755 80.5363307,532.145216 80.62012,533.138098 C80.7384109,534.471224 80.845612,535.459263 80.9404911,536.101004 C80.5954761,536.545379 80.4242008,537.276721 80.4242008,538.292609 C80.4242008,539.671747 80.971296,540.577449 82.0654862,541.010927 C82.4339129,541.991701 82.8257513,542.716989 83.2422336,543.18437 C84.0271426,544.061012 84.4202132,544.820204 84.4202132,545.463156 C84.4202132,546.410026 84.1700773,547.325415 83.6710379,548.206901 C83.1707662,549.089597 82.4696466,549.759187 81.5652145,550.21446 C80.839451,550.576499 79.709527,551.02935 78.1754428,551.573014 C76.6413585,552.116677 75.2674597,552.633702 74.0537464,553.1253 C72.8412654,553.615687 72.0317125,554.066116 71.6275521,554.475378 C71.19998,554.895536 70.8660548,555.462206 70.628241,556.175386 C70.3904271,556.888566 70.2598143,557.496403 70.2364026,557.998898 L70.2006689,558.753247 L107.166555,558.753247 L107.130821,557.998898 Z" id="Me"></path>
            </g>
        </g>
    </g>
</svg>