<?xml version="1.0" encoding="UTF-8"?>
<svg width="42px" height="33px" viewBox="0 0 42 33" version="1.1" xmlns="http://www.w3.org/2000/svg" xmlns:xlink="http://www.w3.org/1999/xlink">
    <!-- Generator: Sketch 49.3 (51167) - http://www.bohemiancoding.com/sketch -->
    <title>credit-card</title>
    <desc>Created with Sketch.</desc>
    <defs></defs>
    <g id="Page-1" stroke="none" stroke-width="1" fill="none" fill-rule="evenodd">
        <g id="Profile" transform="translate(-66.000000, -770.000000)" fill="#53555B">
            <g id="Content" transform="translate(0.000000, 130.000000)">
                <g id="credit-card" transform="translate(66.000000, 640.493506)">
                    <path d="M37.5636738,31.5584416 L3.63519424,31.5584416 C1.63099048,31.5584416 0,29.9246853 0,27.9170829 L0,3.64135864 C0,1.63375624 1.63099048,0 3.63519424,0 L37.5636738,0 C39.5678775,0 41.198868,1.63375624 41.198868,3.64135864 L41.198868,27.9170829 C41.198868,29.9246853 39.5678775,31.5584416 37.5636738,31.5584416 L37.5636738,31.5584416 Z M3.63519424,2.42757243 C2.9663185,2.42757243 2.42346282,2.97134865 2.42346282,3.64135864 L2.42346282,27.9170829 C2.42346282,28.5870929 2.9663185,29.1308691 3.63519424,29.1308691 L37.5636738,29.1308691 C38.2325495,29.1308691 38.7754052,28.5870929 38.7754052,27.9170829 L38.7754052,3.64135864 C38.7754052,2.97134865 38.2325495,2.42757243 37.5636738,2.42757243 L3.63519424,2.42757243 L3.63519424,2.42757243 Z" id="Fill-7"></path>
                    <polygon id="Fill-8" points="1.21173141 4.85514486 39.9871366 4.85514486 39.9871366 12.1378621 1.21173141 12.1378621"></polygon>
                    <polygon id="Fill-9" points="4.84692565 16.993007 6.05865706 16.993007 6.05865706 19.4205794 4.84692565 19.4205794"></polygon>
                    <polygon id="Fill-10" points="7.27038847 16.993007 8.48211989 16.993007 8.48211989 19.4205794 7.27038847 19.4205794"></polygon>
                    <polygon id="Fill-11" points="9.6938513 16.993007 10.9055827 16.993007 10.9055827 19.4205794 9.6938513 19.4205794"></polygon>
                    <polygon id="Fill-12" points="13.3290455 16.993007 14.5407769 16.993007 14.5407769 19.4205794 13.3290455 19.4205794"></polygon>
                    <polygon id="Fill-13" points="15.7525084 16.993007 16.9642398 16.993007 16.9642398 19.4205794 15.7525084 19.4205794"></polygon>
                    <polygon id="Fill-14" points="18.1759712 16.993007 19.3877026 16.993007 19.3877026 19.4205794 18.1759712 19.4205794"></polygon>
                    <polygon id="Fill-15" points="21.8111654 16.993007 23.0228968 16.993007 23.0228968 19.4205794 21.8111654 19.4205794"></polygon>
                    <polygon id="Fill-16" points="24.2346282 16.993007 25.4463597 16.993007 25.4463597 19.4205794 24.2346282 19.4205794"></polygon>
                    <polygon id="Fill-17" points="26.6580911 16.993007 27.8698225 16.993007 27.8698225 19.4205794 26.6580911 19.4205794"></polygon>
                    <polygon id="Fill-18" points="30.2932853 16.993007 31.5050167 16.993007 31.5050167 19.4205794 30.2932853 19.4205794"></polygon>
                    <polygon id="Fill-19" points="32.7167481 16.993007 33.9284795 16.993007 33.9284795 19.4205794 32.7167481 19.4205794"></polygon>
                    <polygon id="Fill-20" points="35.140211 16.993007 36.3519424 16.993007 36.3519424 19.4205794 35.140211 19.4205794"></polygon>
                </g>
            </g>
        </g>
    </g>
</svg>