<?xml version="1.0" encoding="UTF-8"?>
<svg width="30px" height="39px" viewBox="0 0 30 39" version="1.1" xmlns="http://www.w3.org/2000/svg" xmlns:xlink="http://www.w3.org/1999/xlink">
    <!-- Generator: Sketch 49.3 (51167) - http://www.bohemiancoding.com/sketch -->
    <title>Present</title>
    <desc>Created with Sketch.</desc>
    <defs>
        <path d="M100.789107,754.163127 L95.5626828,754.163127 C96.5772443,753.250196 97.2283978,751.937642 97.2283978,750.468913 C97.2283978,747.717488 94.9986554,745.480519 92.2507414,745.480519 C90.3809677,745.480519 88.7691333,746.530103 87.9185066,748.059694 C87.0678799,746.530103 85.4583383,745.480519 83.5885645,745.480519 C80.841797,745.480519 78.6086153,747.71634 78.6086153,750.468913 C78.6086153,751.937642 79.2597689,753.250196 80.2743304,754.163127 L75.045613,754.163127 C74.6913763,754.163127 74.4013378,754.457102 74.4013378,754.810791 L74.4013378,780.601386 C74.4013378,780.953926 74.6925227,781.246753 75.045613,781.246753 L100.787961,781.246753 C101.145637,781.246753 101.434529,780.952778 101.434529,780.601386 L101.434529,754.810791 C101.435675,754.457102 101.146783,754.163127 100.789107,754.163127 L100.789107,754.163127 Z M100.143686,755.456159 L100.143686,767.058998 L88.5627818,767.058998 L88.5627818,755.456159 L92.2530342,755.456159 L100.143686,755.456159 L100.143686,755.456159 Z M92.2507414,746.773552 C94.2833036,746.773552 95.938701,748.435201 95.938701,750.470062 C95.938701,752.504922 94.2867427,754.164275 92.2530342,754.164275 L92.2507414,754.164275 L88.5627818,754.164275 L88.5627818,750.470062 C88.5639282,748.435201 90.2181793,746.773552 92.2507414,746.773552 L92.2507414,746.773552 Z M79.8960193,750.470062 C79.8960193,748.43635 81.554856,746.773552 83.5885645,746.773552 C85.6222731,746.773552 87.2742314,748.435201 87.2742314,750.470062 L87.2742314,754.164275 L83.5862718,754.164275 C81.5525632,754.163127 79.8960193,752.503774 79.8960193,750.470062 L79.8960193,750.470062 Z M83.5885645,755.456159 L87.2742314,755.456159 L87.2742314,767.058998 L75.6933274,767.058998 L75.6933274,755.456159 L83.5885645,755.456159 L83.5885645,755.456159 Z M75.6933274,768.349734 L87.2742314,768.349734 L87.2742314,779.956018 L75.6933274,779.956018 L75.6933274,768.349734 L75.6933274,768.349734 Z M88.5639282,779.956018 L88.5639282,768.349734 L100.144832,768.349734 L100.144832,779.956018 L88.5639282,779.956018 L88.5639282,779.956018 Z" id="path-1"></path>
    </defs>
    <g id="Page-1" stroke="none" stroke-width="1" fill="none" fill-rule="evenodd">
        <g id="Profile" transform="translate(-73.000000, -874.000000)">
            <g id="Content" transform="translate(0.000000, 130.000000)">
                <g id="Present">
                    <use fill="#53555B" fill-rule="evenodd" xlink:href="#path-1"></use>
                    <path stroke="#53555B" stroke-width="1" d="M79.1531436,753.663127 C78.4838007,752.743876 78.1086153,751.635737 78.1086153,750.468913 C78.1086153,747.440765 80.5650868,744.980519 83.5885645,744.980519 C85.3178527,744.980519 86.8983665,745.802959 87.9185681,747.147175 C88.9390491,745.80324 90.5211543,744.980519 92.2507414,744.980519 C95.2742445,744.980519 97.7283978,747.44079 97.7283978,750.468913 C97.7283978,751.635737 97.3532125,752.743876 96.6838696,753.663127 L100.789107,753.663127 C101.422674,753.663127 101.936573,754.181055 101.934529,754.810791 L101.934529,780.601386 C101.934529,781.2304 101.42031,781.746753 100.787961,781.746753 L75.045613,781.746753 C74.4164473,781.746753 73.9013378,781.230138 73.9013378,780.601386 L73.9013378,754.810791 C73.9013378,754.180999 74.4151808,753.663127 75.045613,753.663127 L79.1531436,753.663127 Z M99.6436858,755.956159 L89.0627818,755.956159 L89.0627818,766.558998 L99.6436858,766.558998 L99.6436858,755.956159 Z M99.6436858,766.558998 L100.143686,766.558998 L99.6436858,767.058998 L99.6436858,766.558998 Z M89.0627818,753.664275 L92.2530342,753.664275 C94.0090392,753.664275 95.438701,752.230344 95.438701,750.470062 C95.438701,748.710201 94.0060203,747.273552 92.2507414,747.273552 C90.4958353,747.273552 89.0637735,748.709889 89.0627818,750.470062 L89.0627818,753.664275 Z M86.7742314,753.664275 L86.7742314,750.470062 C86.7742314,748.709247 85.3440384,747.273552 83.5885645,747.273552 C81.8319152,747.273552 80.3960193,748.711574 80.3960193,750.470062 C80.3960193,752.228176 81.8293116,753.663283 83.5862718,753.664275 L86.7742314,753.664275 Z M76.1933274,755.956159 L76.1933274,766.558998 L86.7742314,766.558998 L86.7742314,755.956159 L76.1933274,755.956159 Z M76.1933274,768.849734 L76.1933274,779.456018 L86.7742314,779.456018 L86.7742314,768.849734 L76.1933274,768.849734 Z M89.0639282,779.456018 L99.6448322,779.456018 L99.6448322,768.849734 L89.0639282,768.849734 L89.0639282,779.456018 Z"></path>
                </g>
            </g>
        </g>
    </g>
</svg>