<?xml version="1.0" encoding="UTF-8"?>
<svg width="38px" height="37px" viewBox="0 0 38 37" version="1.1" xmlns="http://www.w3.org/2000/svg" xmlns:xlink="http://www.w3.org/1999/xlink">
    <!-- Generator: Sketch 49.3 (51167) - http://www.bohemiancoding.com/sketch -->
    <title>Contact us</title>
    <desc>Created with Sketch.</desc>
    <defs></defs>
    <g id="Page-1" stroke="none" stroke-width="1" fill="none" fill-rule="evenodd">
        <g id="Profile" transform="translate(-70.000000, -987.000000)" stroke="#53555B" stroke-width="3.15">
            <g id="Content" transform="translate(0.000000, 130.000000)">
                <path d="M72.3010033,864.90423 C72.3010033,869.85407 75.7475399,876.819254 83.4516894,883.807352 C91.1558389,890.795449 96.4597139,893.25945 100.851619,892.209553 C102.728862,891.760793 108.250049,887.605274 104.79138,884.418341 C104.060847,883.745204 99.9155191,879.825282 96.6240771,879.176414 C94.6287184,878.783054 93.5875532,881.992046 91.6941925,880.803117 C89.1036785,879.176414 85.224146,875.610389 83.80633,872.469769 C83.1375809,870.988416 86.601316,868.536195 85.8214271,867.21848 C82.8153888,862.139418 80.7228317,858.779221 78.7898235,858.779221 C77.5581961,858.779221 72.3010033,859.95439 72.3010033,864.90423 Z" id="Contact-us"></path>
            </g>
        </g>
    </g>
</svg>