<?xml version="1.0" encoding="UTF-8"?>
<svg width="32px" height="41px" viewBox="0 0 32 41" version="1.1" xmlns="http://www.w3.org/2000/svg" xmlns:xlink="http://www.w3.org/1999/xlink">
    <!-- Generator: Sketch 49.3 (51167) - http://www.bohemiancoding.com/sketch -->
    <title>bell</title>
    <desc>Created with Sketch.</desc>
    <defs></defs>
    <g id="Page-1" stroke="none" stroke-width="1" fill="none" fill-rule="evenodd">
        <g id="Menu" transform="translate(-82.000000, -791.000000)" fill="#332F20" fill-rule="nonzero">
            <g id="light-menu" transform="translate(50.000000, 85.000000)">
                <g id="menu">
                    <g transform="translate(0.000000, 328.000000)">
                        <g id="item-3-copy" transform="translate(24.000000, 354.000000)">
                            <g id="bell" transform="translate(8.000000, 24.000000)">
                                <path d="M15.8172217,5.62128079 C8.50908374,5.62128079 2.56370443,11.5666601 2.56370443,18.874798 L2.56370443,32.950936 L5.3057734,32.950936 L5.3057734,18.874798 C5.3057734,13.078936 10.0208079,8.36334975 15.8172217,8.36334975 C21.6136355,8.36334975 26.32867,13.0788571 26.32867,18.874798 L26.32867,32.950936 L29.0708177,32.950936 L29.0708177,18.874798 C29.0707389,11.5666601 23.1253596,5.62128079 15.8172217,5.62128079 Z" id="Shape"></path>
                                <path d="M30.6245517,31.5799015 L1.37544828,31.5799015 C0.618167488,31.5799015 0.0044137931,32.1936552 0.0044137931,32.950936 C0.0044137931,33.7082167 0.618167488,34.3219704 1.37544828,34.3219704 L30.6246305,34.3219704 C31.3819113,34.3219704 31.995665,33.7082167 31.995665,32.950936 C31.995665,32.1936552 31.3818325,31.5799015 30.6245517,31.5799015 Z" id="Shape"></path>
                                <path d="M15.8172217,0 C13.498798,0 11.6126897,1.88610837 11.6126897,4.20453202 C11.6126897,6.52295567 13.498798,8.40906404 15.8172217,8.40906404 C18.1356453,8.40906404 20.0217537,6.52295567 20.0217537,4.20453202 C20.0217537,1.88610837 18.1356453,0 15.8172217,0 Z M15.8172217,5.66699507 C15.0243153,5.66699507 14.3547586,4.99704433 14.3547586,4.20453202 C14.3547586,3.41162562 15.0243153,2.74206897 15.8172217,2.74206897 C16.6101281,2.74206897 17.2796847,3.41162562 17.2796847,4.20453202 C17.2796847,4.99743842 16.6101281,5.66699507 15.8172217,5.66699507 Z" id="Shape"></path>
                                <path d="M18.1936552,32.9510148 L18.1936552,35.3275271 C18.1936552,36.5875074 17.1685517,37.6126108 15.9085714,37.6126108 C14.6485911,37.6126108 13.6234877,36.5875074 13.6234877,35.3275271 L13.6234877,32.9510148 L10.8813399,32.9510148 L10.8813399,35.3275271 C10.8813399,38.0993103 13.1367094,40.3547586 15.9085714,40.3547586 C18.6803547,40.3547586 20.935803,38.0993892 20.935803,35.3275271 L20.935803,32.9510148 L18.1936552,32.9510148 Z" id="Shape"></path>
                            </g>
                        </g>
                    </g>
                </g>
            </g>
        </g>
    </g>
</svg>