<?xml version="1.0" encoding="UTF-8"?>
<svg width="28px" height="26px" viewBox="0 0 28 26" version="1.1" xmlns="http://www.w3.org/2000/svg" xmlns:xlink="http://www.w3.org/1999/xlink">
    <!-- Generator: Sketch 49.3 (51167) - http://www.bohemiancoding.com/sketch -->
    <title>cart</title>
    <desc>Created with Sketch.</desc>
    <defs></defs>
    <g id="Page-1" stroke="none" stroke-width="1" fill="none" fill-rule="evenodd">
        <g id="Main-activity-2" transform="translate(-688.000000, -102.000000)">
            <g id="Group" transform="translate(667.000000, 91.000000)">
                <g id="cart" transform="translate(19.000000, 7.000000)">
                    <rect id="bound" x="0" y="0" width="32" height="32"></rect>
                    <path d="M3.73332251,6.11111111 C3.14422476,6.11111111 2.66666667,5.63852279 2.66666667,5.05555556 C2.66666667,4.47258832 3.14422476,4 3.73332251,4 L6.93329005,4 C7.43075045,4 7.86216029,4.34028993 7.97308851,4.82017822 L12.1210234,22.7646227 L11.0812249,21.9444444 L26.2517838,21.9444444 L25.2036589,22.8040978 L27.2182821,12.2485423 L28.1904109,13.4973175 L13.257229,12.441762 C12.6696284,12.4002273 12.2273085,11.8951694 12.26928,11.3136837 C12.3112514,10.7321979 12.8216205,10.2944811 13.4092212,10.3360158 L28.342403,11.3915714 C28.9785312,11.4365362 29.4328926,12.0201989 29.3145318,12.6403466 L27.2999086,23.1959022 C27.204745,23.6945088 26.7645419,24.0555556 26.2517838,24.0555556 L11.0812249,24.0555556 C10.5837645,24.0555556 10.1523547,23.7152656 10.0414265,23.2353773 L5.89349158,5.29093289 L6.93329005,6.11111111 L3.73332251,6.11111111 Z M23.9997836,29.3333333 C22.8215881,29.3333333 21.8664719,28.3881567 21.8664719,27.2222222 C21.8664719,26.0562878 22.8215881,25.1111111 23.9997836,25.1111111 C25.1779791,25.1111111 26.1330953,26.0562878 26.1330953,27.2222222 C26.1330953,28.3881567 25.1779791,29.3333333 23.9997836,29.3333333 Z M13.3332251,29.3333333 C12.1550296,29.3333333 11.1999134,28.3881567 11.1999134,27.2222222 C11.1999134,26.0562878 12.1550296,25.1111111 13.3332251,25.1111111 C14.5114206,25.1111111 15.4665368,26.0562878 15.4665368,27.2222222 C15.4665368,28.3881567 14.5114206,29.3333333 13.3332251,29.3333333 Z" fill="#000000" fill-rule="nonzero"></path>
                </g>
            </g>
        </g>
    </g>
</svg>