<?xml version="1.0" encoding="UTF-8"?>
<svg width="53px" height="54px" viewBox="0 0 53 54" version="1.1" xmlns="http://www.w3.org/2000/svg" xmlns:xlink="http://www.w3.org/1999/xlink">
    <!-- Generator: Sketch 49.3 (51167) - http://www.bohemiancoding.com/sketch -->
    <title>cart</title>
    <desc>Created with Sketch.</desc>
    <defs>
        <filter x="-1.4%" y="-6.5%" width="102.9%" height="115.9%" filterUnits="objectBoundingBox" id="filter-1">
            <feOffset dx="0" dy="2" in="SourceAlpha" result="shadowOffsetOuter1"></feOffset>
            <feGaussianBlur stdDeviation="4" in="shadowOffsetOuter1" result="shadowBlurOuter1"></feGaussianBlur>
            <feColorMatrix values="0 0 0 0 0   0 0 0 0 0   0 0 0 0 0  0 0 0 0.13 0" type="matrix" in="shadowBlurOuter1" result="shadowMatrixOuter1"></feColorMatrix>
            <feMerge>
                <feMergeNode in="shadowMatrixOuter1"></feMergeNode>
                <feMergeNode in="SourceGraphic"></feMergeNode>
            </feMerge>
        </filter>
    </defs>
    <g id="Page-1" stroke="none" stroke-width="1" fill="none" fill-rule="evenodd">
        <g id="Your-Cart" transform="translate(-534.000000, -318.000000)">
            <g id="Faux-leather-jacket" filter="url(#filter-1)" transform="translate(-184.000000, 258.000000)">
                <g id="add-to-cart" transform="translate(691.000000, 0.000000)">
                    <g id="cart" transform="translate(30.546875, 62.421875)">
                        <rect id="bound" x="0" y="0" width="45.15625" height="45.15625"></rect>
                        <g id="icon" transform="translate(3.763021, 3.763021)" fill="#332F20" fill-rule="nonzero">
                            <path d="M6.02077225,4.86056858 L1.50519306,4.86056858 C0.673897889,4.86056858 0,4.19368369 0,3.3710395 C0,2.5483953 0.673897889,1.88151042 1.50519306,1.88151042 L6.02077225,1.88151042 C6.72275495,1.88151042 7.33153152,2.36170471 7.48806598,3.03889082 L13.341353,28.3608852 L11.8740593,27.2035048 L33.2817326,27.2035048 L31.8026893,28.4165898 C31.8026893,28.4165898 34.3687044,14.7305983 34.6455902,13.521299 C34.922476,12.3119998 36.2318741,12.3119993 36.2318741,12.3119993 C37.1295354,12.3754507 37.7706996,13.1990762 37.6036768,14.0741871 L34.7607759,28.9694779 C34.6264875,29.673078 34.0053024,30.1825629 33.2817326,30.1825629 L11.8740593,30.1825629 C11.1720766,30.1825629 10.5633,29.7023686 10.4067655,29.0251825 L4.55347852,3.70318818 L6.02077225,4.86056858 Z M30.1038613,37.6302083 C28.4412709,37.6302083 27.0934751,36.2964386 27.0934751,34.6511502 C27.0934751,33.0058618 28.4412709,31.672092 30.1038613,31.672092 C31.7664516,31.672092 33.1142474,33.0058618 33.1142474,34.6511502 C33.1142474,36.2964386 31.7664516,37.6302083 30.1038613,37.6302083 Z M15.0519306,37.6302083 C13.3893403,37.6302083 12.0415445,36.2964386 12.0415445,34.6511502 C12.0415445,33.0058618 13.3893403,31.672092 15.0519306,31.672092 C16.714521,31.672092 18.0623168,33.0058618 18.0623168,34.6511502 C18.0623168,36.2964386 16.714521,37.6302083 15.0519306,37.6302083 Z" id="cart"></path>
                            <path d="M20.7730755,0.9417271 L20.7730755,14.0788201 C20.7730755,14.5989217 21.1999714,15.0205472 21.7265742,15.0205472 C22.2531769,15.0205472 22.6800728,14.5989217 22.6800728,14.0788201 L22.6800728,0.9417271 C22.6800728,0.421625584 22.2531769,3.65610099e-13 21.7265742,3.65513363e-13 C21.1999714,3.65416628e-13 20.7730755,0.9417271 20.7730755,0.9417271 Z M26.7733409,7.79409201 L21.0523488,13.4444546 L22.4007995,13.4444546 L16.6798074,7.79409201 C16.307443,7.42632471 15.703721,7.42632471 15.3313566,7.79409201 C14.9589922,8.16185932 14.9589922,8.75812794 15.3313566,9.12589525 L21.0523488,14.7762579 C21.4247132,15.1440252 22.0284351,15.1440252 22.4007995,14.7762579 L28.1217917,9.12589525 C28.4941561,8.75812794 28.4941561,8.16185932 28.1217917,7.79409201 C27.7494273,7.42632471 27.1457053,7.42632471 26.7733409,7.79409201 L26.7733409,7.79409201 Z" id="Shape-Copy-2" stroke="#332F20" stroke-width="0.708333333"></path>
                        </g>
                    </g>
                </g>
            </g>
        </g>
    </g>
</svg>