<?xml version="1.0" encoding="UTF-8"?>
<svg width="50px" height="56px" viewBox="0 0 50 56" version="1.1" xmlns="http://www.w3.org/2000/svg" xmlns:xlink="http://www.w3.org/1999/xlink">
    <!-- Generator: Sketch 49.3 (51167) - http://www.bohemiancoding.com/sketch -->
    <title>Shape</title>
    <desc>Created with Sketch.</desc>
    <defs>
        <filter x="-1.4%" y="-6.5%" width="102.9%" height="115.9%" filterUnits="objectBoundingBox" id="filter-1">
            <feOffset dx="0" dy="2" in="SourceAlpha" result="shadowOffsetOuter1"></feOffset>
            <feGaussianBlur stdDeviation="4" in="shadowOffsetOuter1" result="shadowBlurOuter1"></feGaussianBlur>
            <feColorMatrix values="0 0 0 0 0   0 0 0 0 0   0 0 0 0 0  0 0 0 0.13 0" type="matrix" in="shadowBlurOuter1" result="shadowMatrixOuter1"></feColorMatrix>
            <feMerge>
                <feMergeNode in="shadowMatrixOuter1"></feMergeNode>
                <feMergeNode in="SourceGraphic"></feMergeNode>
            </feMerge>
        </filter>
    </defs>
    <g id="Page-1" stroke="none" stroke-width="1" fill="none" fill-rule="evenodd">
        <g id="Your-Cart" transform="translate(-641.000000, -317.000000)" fill="#FFFFFF" fill-rule="nonzero">
            <g id="Faux-leather-jacket" filter="url(#filter-1)" transform="translate(-184.000000, 258.000000)">
                <g id="delete" transform="translate(797.000000, 0.000000)">
                    <path d="M65.089281,72.8750941 L61.2629529,102.209869 C61.2650039,102.194013 61.177151,102.265625 61.09375,102.265625 L45.15625,102.265625 C45.0729917,102.265625 44.984937,102.193805 44.9868855,102.208634 L41.160719,72.8750941 C41.065847,72.1477522 40.3993109,71.635034 39.6719691,71.729906 C38.9446272,71.824778 38.431909,72.4913141 38.526781,73.2186559 L42.3531091,102.553431 C42.5305426,103.903866 43.7786614,104.921875 45.15625,104.921875 L61.09375,104.921875 C62.4721122,104.921875 63.7222809,103.902822 63.8970654,102.552088 L67.723219,73.2186559 C67.818091,72.4913141 67.3053728,71.824778 66.5780309,71.729906 C65.8506891,71.635034 65.184153,72.1477522 65.089281,72.8750941 L65.089281,72.8750941 Z M37.1875,74.375 L69.0625,74.375 C69.7960032,74.375 70.390625,73.7803782 70.390625,73.046875 C70.390625,72.3133718 69.7960032,71.71875 69.0625,71.71875 L37.1875,71.71875 C36.4539968,71.71875 35.859375,72.3133718 35.859375,73.046875 C35.859375,73.7803782 36.4539968,74.375 37.1875,74.375 L37.1875,74.375 Z M49.140625,73.046875 L49.140625,69.0625 C49.140625,68.3350657 49.7413157,67.734375 50.46875,67.734375 L55.78125,67.734375 C56.5086843,67.734375 57.109375,68.3350657 57.109375,69.0625 L57.109375,73.046875 C57.109375,73.7803782 57.7039968,74.375 58.4375,74.375 C59.1710032,74.375 59.765625,73.7803782 59.765625,73.046875 L59.765625,69.0625 C59.765625,66.8680593 57.9756907,65.078125 55.78125,65.078125 L50.46875,65.078125 C48.2743093,65.078125 46.484375,66.8680593 46.484375,69.0625 L46.484375,73.046875 C46.484375,73.7803782 47.0789968,74.375 47.8125,74.375 C48.5460032,74.375 49.140625,73.7803782 49.140625,73.046875 L49.140625,73.046875 Z M58.4420877,79.5772052 L57.1139627,95.5147052 C57.0530485,96.2456747 57.5962357,96.8876232 58.3272052,96.9485373 C59.0581747,97.0094515 59.7001232,96.4662643 59.7610373,95.7352948 L61.0891623,79.7977948 C61.1500765,79.0668253 60.6068893,78.4248768 59.8759198,78.3639627 C59.1449503,78.3030485 58.5030018,78.8462357 58.4420877,79.5772052 L58.4420877,79.5772052 Z M45.1608377,79.7977948 L46.4889627,95.7352948 C46.5498768,96.4662643 47.1918253,97.0094515 47.9227948,96.9485373 C48.6537643,96.8876232 49.1969515,96.2456747 49.1360373,95.5147052 L47.8079123,79.5772052 C47.7469982,78.8462357 47.1050497,78.3030485 46.3740802,78.3639627 C45.6431107,78.4248768 45.0999235,79.0668253 45.1608377,79.7977948 L45.1608377,79.7977948 Z M51.796875,79.6875 L51.796875,95.625 C51.796875,96.3585032 52.3914968,96.953125 53.125,96.953125 C53.8585032,96.953125 54.453125,96.3585032 54.453125,95.625 L54.453125,79.6875 C54.453125,78.9539968 53.8585032,78.359375 53.125,78.359375 C52.3914968,78.359375 51.796875,78.9539968 51.796875,79.6875 L51.796875,79.6875 Z" id="Shape"></path>
                </g>
            </g>
        </g>
    </g>
</svg>