<?xml version="1.0" encoding="UTF-8"?>
<svg width="33px" height="33px" viewBox="0 0 33 33" version="1.1" xmlns="http://www.w3.org/2000/svg" xmlns:xlink="http://www.w3.org/1999/xlink">
    <!-- Generator: Sketch 49.3 (51167) - http://www.bohemiancoding.com/sketch -->
    <title>drugs</title>
    <desc>Created with Sketch.</desc>
    <defs></defs>
    <g id="Page-1" stroke="none" stroke-width="1" fill="none" fill-rule="evenodd">
        <g id="Menu" transform="translate(-80.000000, -526.000000)" fill="#000000" fill-rule="nonzero">
            <g id="light-menu" transform="translate(50.000000, 85.000000)">
                <g id="menu">
                    <g transform="translate(0.000000, 328.000000)">
                        <g id="item" transform="translate(24.000000, 88.000000)">
                            <g id="drugs" transform="translate(6.000000, 25.000000)">
                                <path d="M28.5223567,16.7575029 L30.3904912,14.8893684 C33.7839591,11.4959006 33.784345,6.00329825 30.3904912,2.60950877 C26.997152,-0.783894737 21.5044854,-0.784345029 18.1106959,2.60950877 C17.3863684,3.3337076 3.20222222,17.5179825 2.54524561,18.1749591 C-0.848222223,21.5684269 -0.848608188,27.0610292 2.54524561,30.4548187 C5.93858479,33.8482222 11.4312515,33.8486725 14.8250409,30.4548187 L16.6932398,28.5866842 C18.1866667,31.218386 21.0145673,32.9980702 24.2505614,32.9980702 C29.0384561,32.9980702 32.9337427,29.1027836 32.9337427,24.3148889 C32.9337427,21.0788304 31.1541228,18.2509298 28.5223567,16.7575029 Z M15.5673801,24.3148246 C15.5673801,25.1276023 15.6799532,25.9145848 15.8897251,26.6612982 L13.460655,29.0903684 C10.8213626,31.7295965 6.54930994,31.7299825 3.90969591,29.0903684 C1.27040351,26.4511404 1.27001754,22.1790234 3.90969591,19.5394094 L10.9513041,12.4978012 L17.4169883,18.9634211 C16.2587719,20.4391579 15.5673801,22.2977719 15.5673801,24.3148246 Z M23.2857134,30.9992222 C20.0171696,30.5296316 17.4969474,27.7112515 17.4969474,24.3148246 C17.4969474,20.9183977 20.0171696,18.1000175 23.2857134,17.6304269 L23.2857134,30.9992222 Z M18.7685731,17.5862339 L12.3156901,11.1333509 L19.4750819,3.97395906 C22.1143743,1.33473099 26.3864269,1.33434503 29.0260409,3.97395906 C31.6653333,6.61318713 31.6657193,10.8853041 29.0260409,13.5249181 L26.5969708,15.9539883 C25.8502573,15.744152 25.0633392,15.6316433 24.2505614,15.6316433 C22.1734269,15.6316433 20.2645731,16.3651696 18.7685731,17.5862339 Z M25.215345,30.9992222 L25.215345,17.6304912 C28.4838889,18.1000819 31.0041111,20.918462 31.0041111,24.3148889 C31.0041111,27.7112515 28.4838889,30.5296316 25.215345,30.9992222 Z" id="Shape"></path>
                            </g>
                        </g>
                    </g>
                </g>
            </g>
        </g>
    </g>
</svg>