<?xml version="1.0" encoding="UTF-8"?>
<svg width="36px" height="36px" viewBox="0 0 36 36" version="1.1" xmlns="http://www.w3.org/2000/svg" xmlns:xlink="http://www.w3.org/1999/xlink">
    <!-- Generator: Sketch 49.3 (51167) - http://www.bohemiancoding.com/sketch -->
    <title>Fill 1</title>
    <desc>Created with Sketch.</desc>
    <defs></defs>
    <g id="Page-1" stroke="none" stroke-width="1" fill="none" fill-rule="evenodd">
        <g id="Menu" transform="translate(-80.000000, -703.000000)" fill="#332F20">
            <g id="light-menu" transform="translate(50.000000, 85.000000)">
                <g id="menu">
                    <g transform="translate(0.000000, 328.000000)">
                        <g id="item-3" transform="translate(24.000000, 264.000000)">
                            <g id="icon" transform="translate(0.000000, 20.000000)">
                                <path d="M9.08555222,39 L38.8924058,39 L36.1923737,20.4225 C36.130873,19.935 35.6388672,19.5 35.1753617,19.5 L12.9210977,19.5 C12.439592,19.5 11.9145858,19.953 11.8395849,20.4315 L9.08555222,39 Z M19.5000257,16.5 L28.5001325,16.5 L28.5001325,13.5 C28.5001325,11.019 26.4811085,9 24.0015791,9 C21.5190497,9 19.5000257,11.019 19.5000257,13.5 L19.5000257,16.5 Z M16.4999902,16.5 L16.4999902,13.5 C16.4999902,9.3645 19.8660301,6 24.0015791,6 C28.1367656,6 31.4995783,9.36391005 31.500168,13.4989123 C31.500168,13.4990748 31.5001681,13.4992374 31.5001681,13.4994 L31.5001681,16.5 L35.1753617,16.5 C37.1643853,16.5 38.916406,18.045 39.163909,20.019 L41.944942,39.144 C42.0934437,39.8505 41.9389419,40.56 41.5129368,41.106 C41.0704316,41.6745 40.3819234,42 39.6259145,42 L8.47054492,42 C7.74603633,42 7.06352824,41.694 6.60002274,41.1615 C6.13501722,40.6275 5.92501473,39.9105 6.02401591,39.1905 L8.87404971,19.98 C9.17855332,18.024 10.9560744,16.5 12.9210977,16.5 L16.4999902,16.5 Z M18.002108,27 C16.3460883,27 15.0005724,25.6545 15.0005724,24 C15.0005724,22.3455 16.3460883,21 18.002108,21 C19.6551276,21 21.0006435,22.3455 21.0006435,24 C21.0006435,25.6545 19.6551276,27 18.002108,27 Z M30.0045003,24 L30.0045003,25.5 L29.9970002,24.0015 C29.9985003,24.0015 30.0030003,24 30.0045003,24 Z M30.0045003,27 C28.3469807,27 26.9999647,25.6545 26.9999647,24 C26.9999647,22.3455 28.3469807,21 30.0045003,21 C31.6575199,21 33.0000359,22.3455 33.0000359,24 C33.0000359,25.6545 31.6575199,27 30.0045003,27 L30.0045003,27 Z" id="Fill-1"></path>
                            </g>
                        </g>
                    </g>
                </g>
            </g>
        </g>
    </g>
</svg>