<?xml version="1.0" encoding="UTF-8"?>
<svg width="28px" height="28px" viewBox="0 0 28 28" version="1.1" xmlns="http://www.w3.org/2000/svg" xmlns:xlink="http://www.w3.org/1999/xlink">
    <!-- Generator: Sketch 49.3 (51167) - http://www.bohemiancoding.com/sketch -->
    <title>filter</title>
    <desc>Created with Sketch.</desc>
    <defs></defs>
    <g id="Page-1" stroke="none" stroke-width="1" fill="none" fill-rule="evenodd">
        <g id="Fill" transform="translate(-676.000000, -74.000000)">
            <g id="Navigation-Bar">
                <g id="filter" transform="translate(674.000000, 72.000000)">
                    <rect id="bound" x="0" y="0" width="32" height="32"></rect>
                    <path d="M7.2244898,28.3809524 L7.2244898,18.6530612 L5.31972789,18.6530612 L5.31972789,28.3809524 L7.2244898,28.3809524 L7.2244898,28.3809524 Z M5.31972789,28.3809524 C5.31972789,29.6507937 7.2244898,29.6507937 7.2244898,28.3809524 L7.2244898,18.6530612 C7.2244898,17.38322 5.31972789,17.38322 5.31972789,18.6530612 L5.31972789,28.3809524 L5.31972789,28.3809524 Z M7.2244898,12.462585 L7.2244898,3.61904762 L5.31972789,3.61904762 L5.31972789,12.462585 L7.2244898,12.462585 L7.2244898,12.462585 Z M5.31972789,12.462585 C5.31972789,13.7324263 7.2244898,13.7324263 7.2244898,12.462585 L7.2244898,3.61904762 C7.2244898,2.34920635 5.31972789,2.34920635 5.31972789,3.61904762 L5.31972789,12.462585 L5.31972789,12.462585 Z M26.6802721,28.3809524 L26.6802721,13.3469388 L24.7755102,13.3469388 L24.7755102,28.3809524 L26.6802721,28.3809524 L26.6802721,28.3809524 Z M24.7755102,28.3809524 C24.7755102,29.6507937 26.6802721,29.6507937 26.6802721,28.3809524 L26.6802721,13.3469388 C26.6802721,12.0770975 24.7755102,12.0770975 24.7755102,13.3469388 L24.7755102,28.3809524 L24.7755102,28.3809524 Z M26.6802721,7.15646259 L26.6802721,3.61904762 L24.7755102,3.61904762 L24.7755102,7.15646259 L26.6802721,7.15646259 L26.6802721,7.15646259 Z M24.7755102,7.15646259 C24.7755102,8.42630385 26.6802721,8.42630385 26.6802721,7.15646259 L26.6802721,3.61904762 C26.6802721,2.34920635 24.7755102,2.34920635 24.7755102,3.61904762 L24.7755102,7.15646259 L24.7755102,7.15646259 Z M16.952381,28.3809524 L16.952381,23.9591837 L15.047619,23.9591837 L15.047619,28.3809524 L16.952381,28.3809524 L16.952381,28.3809524 Z M15.047619,28.3809524 C15.047619,29.6507937 16.952381,29.6507937 16.952381,28.3809524 L16.952381,23.9591837 C16.952381,22.6893424 15.047619,22.6893424 15.047619,23.9591837 L15.047619,28.3809524 L15.047619,28.3809524 Z M16.952381,17.7687075 L16.952381,3.61904762 L15.047619,3.61904762 L15.047619,17.7687075 L16.952381,17.7687075 L16.952381,17.7687075 Z M15.047619,17.7687075 C15.047619,19.0385488 16.952381,19.0385488 16.952381,17.7687075 L16.952381,3.61904762 C16.952381,2.34920635 15.047619,2.34920635 15.047619,3.61904762 L15.047619,17.7687075 L15.047619,17.7687075 Z M17.7006803,21.3061224 C17.7006803,22.2463955 16.940273,23.0068027 16,23.0068027 C15.0607865,23.0068027 14.2993197,22.2456865 14.2993197,21.3061224 C14.2993197,20.3676181 15.0614957,19.6054422 16,19.6054422 C16.9395641,19.6054422 17.7006803,20.366909 17.7006803,21.3061224 L17.7006803,21.3061224 Z M19.6054422,21.3061224 C19.6054422,19.3151343 17.9917314,17.7006803 16,17.7006803 C14.0095247,17.7006803 12.3945578,19.3156472 12.3945578,21.3061224 C12.3945578,23.2978539 14.0090119,24.9115646 16,24.9115646 C17.992244,24.9115646 19.6054422,23.2983664 19.6054422,21.3061224 L19.6054422,21.3061224 Z M27.4285714,10.6938776 C27.4285714,11.6341506 26.6681642,12.3945578 25.7278912,12.3945578 C24.7886777,12.3945578 24.0272109,11.6334416 24.0272109,10.6938776 C24.0272109,9.75484334 24.7890323,8.99319728 25.7278912,8.99319728 C26.6678096,8.99319728 27.4285714,9.75413428 27.4285714,10.6938776 L27.4285714,10.6938776 Z M29.3333333,10.6938776 C29.3333333,8.7022615 27.7198788,7.08843537 25.7278912,7.08843537 C23.7371595,7.08843537 22.122449,8.70277421 22.122449,10.6938776 C22.122449,12.685609 23.736903,14.2993197 25.7278912,14.2993197 C27.7201351,14.2993197 29.3333333,12.6861215 29.3333333,10.6938776 L29.3333333,10.6938776 Z M7.97278912,16 C7.97278912,16.940273 7.21238187,17.7006803 6.27210884,17.7006803 C5.33289535,17.7006803 4.57142857,16.9395641 4.57142857,16 C4.57142857,15.0614957 5.33360452,14.2993197 6.27210884,14.2993197 C7.21167292,14.2993197 7.97278912,15.0607865 7.97278912,16 L7.97278912,16 Z M9.87755102,16 C9.87755102,14.0090119 8.26384029,12.3945578 6.27210884,12.3945578 C4.28163357,12.3945578 2.66666667,14.0095247 2.66666667,16 C2.66666667,17.9917314 4.2811207,19.6054422 6.27210884,19.6054422 C8.26435282,19.6054422 9.87755102,17.992244 9.87755102,16 L9.87755102,16 Z" id="Shape" fill="#FFF8EF" fill-rule="nonzero"></path>
                </g>
            </g>
        </g>
    </g>
</svg>