<?xml version="1.0" encoding="UTF-8"?>
<svg width="44px" height="44px" viewBox="0 0 44 44" version="1.1" xmlns="http://www.w3.org/2000/svg" xmlns:xlink="http://www.w3.org/1999/xlink">
    <!-- Generator: Sketch 49.3 (51167) - http://www.bohemiancoding.com/sketch -->
    <title>filter</title>
    <desc>Created with Sketch.</desc>
    <defs></defs>
    <g id="Page-1" stroke="none" stroke-width="1" fill="none" fill-rule="evenodd">
        <g id="Filter-Standard" transform="translate(-670.000000, -74.000000)">
            <g id="filter" transform="translate(670.000000, 74.000000)">
                <rect id="bound" x="6.47058824" y="6.47058824" width="31.0588235" height="31.0588235"></rect>
                <rect id="body" fill="#F15A29" x="0" y="0" width="44" height="44" rx="4"></rect>
                <path d="M12.9411765,33.6470588 L12.9411765,24.5882353 L11.6470588,24.5882353 L11.6470588,33.6470588 L12.9411765,33.6470588 L12.9411765,33.6470588 Z M11.6470588,33.9876161 C11.6470588,35.2590299 12.9411765,35.2590299 12.9411765,33.9876161 L12.9411765,24.247678 C12.9411765,22.9762642 11.6470588,22.9762642 11.6470588,24.247678 L11.6470588,33.9876161 L11.6470588,33.9876161 Z M12.9411765,19.4117647 L12.9411765,10.3529412 L11.6470588,10.3529412 L11.6470588,19.4117647 L12.9411765,19.4117647 L12.9411765,19.4117647 Z M11.6470588,18.4944155 C11.6470588,19.7175478 12.9411765,19.7175478 12.9411765,18.4944155 L12.9411765,9.97617275 C12.9411765,8.75304046 11.6470588,8.75304046 11.6470588,9.97617275 L11.6470588,18.4944155 L11.6470588,18.4944155 Z M32.3529412,33.6470588 L32.3529412,19.4117647 L31.0588235,19.4117647 L31.0588235,33.6470588 L32.3529412,33.6470588 L32.3529412,33.6470588 Z M31.0588235,33.9952752 C31.0588235,35.2564769 32.3529412,35.2564769 32.3529412,33.9952752 L32.3529412,19.0635483 C32.3529412,17.8023466 31.0588235,17.8023466 31.0588235,19.0635483 L31.0588235,33.9952752 L31.0588235,33.9952752 Z M32.3529412,14.2352941 L32.3529412,10.3529412 L31.0588235,10.3529412 L31.0588235,14.2352941 L32.3529412,14.2352941 L32.3529412,14.2352941 Z M31.0588235,13.3294118 C31.0588235,14.5372549 32.3529412,14.5372549 32.3529412,13.3294118 L32.3529412,9.96470588 C32.3529412,8.75686275 31.0588235,8.75686275 31.0588235,9.96470588 L31.0588235,13.3294118 L31.0588235,13.3294118 Z M22,33.6470588 L22,29.7647059 L20.7058824,29.7647059 L20.7058824,33.6470588 L22,33.6470588 L22,33.6470588 Z M20.7058824,33.9671094 C20.7058824,35.2658655 22,35.2658655 22,33.9671094 L22,29.4446553 C22,28.1458992 20.7058824,28.1458992 20.7058824,29.4446553 L20.7058824,33.9671094 L20.7058824,33.9671094 Z M22,24.5882353 L22,10.3529412 L20.7058824,10.3529412 L20.7058824,24.5882353 L22,24.5882353 L22,24.5882353 Z M20.7058824,23.666999 C20.7058824,24.8953141 22,24.8953141 22,23.666999 L22,9.98005982 C22,8.75174477 20.7058824,8.75174477 20.7058824,9.98005982 L20.7058824,23.666999 L20.7058824,23.666999 Z M23.2941176,26.5294118 C23.2941176,27.6026505 22.4261799,28.4705882 21.3529412,28.4705882 C20.2809118,28.4705882 19.4117647,27.6018413 19.4117647,26.5294118 C19.4117647,25.4581919 20.2817213,24.5882353 21.3529412,24.5882353 C22.4253707,24.5882353 23.2941176,25.4573824 23.2941176,26.5294118 L23.2941176,26.5294118 Z M24.5882353,26.5294118 C24.5882353,24.7428258 23.1401941,23.2941176 21.3529412,23.2941176 C19.5668155,23.2941176 18.1176471,24.7432861 18.1176471,26.5294118 C18.1176471,28.3166647 19.5663553,29.7647059 21.3529412,29.7647059 C23.140654,29.7647059 24.5882353,28.3171246 24.5882353,26.5294118 L24.5882353,26.5294118 Z M33.6470588,16.1764706 C33.6470588,17.2497093 32.779121,18.1176471 31.7058824,18.1176471 C30.633853,18.1176471 29.7647059,17.2489001 29.7647059,16.1764706 C29.7647059,15.1046459 30.6342578,14.2352941 31.7058824,14.2352941 C32.7787164,14.2352941 33.6470588,15.1038366 33.6470588,16.1764706 L33.6470588,16.1764706 Z M34.9411765,16.1764706 C34.9411765,14.3893212 33.4933652,12.9411765 31.7058824,12.9411765 C29.9195266,12.9411765 28.4705882,14.3897813 28.4705882,16.1764706 C28.4705882,17.9637235 29.9192964,19.4117647 31.7058824,19.4117647 C33.4935952,19.4117647 34.9411765,17.9641834 34.9411765,16.1764706 L34.9411765,16.1764706 Z M14.2352941,21.3529412 C14.2352941,22.4261799 13.3673563,23.2941176 12.2941176,23.2941176 C11.2220883,23.2941176 10.3529412,22.4253707 10.3529412,21.3529412 C10.3529412,20.2817213 11.2228978,19.4117647 12.2941176,19.4117647 C13.3665471,19.4117647 14.2352941,20.2809118 14.2352941,21.3529412 L14.2352941,21.3529412 Z M15.5294118,21.3529412 C15.5294118,19.5663553 14.0813706,18.1176471 12.2941176,18.1176471 C10.5079919,18.1176471 9.05882353,19.5668155 9.05882353,21.3529412 C9.05882353,23.1401941 10.5075317,24.5882353 12.2941176,24.5882353 C14.0818305,24.5882353 15.5294118,23.140654 15.5294118,21.3529412 L15.5294118,21.3529412 Z" id="Shape" fill="#FFFFFF" fill-rule="nonzero"></path>
            </g>
        </g>
    </g>
</svg>