<?xml version="1.0" encoding="UTF-8"?>
<svg width="36px" height="36px" viewBox="0 0 36 36" version="1.1" xmlns="http://www.w3.org/2000/svg" xmlns:xlink="http://www.w3.org/1999/xlink">
    <!-- Generator: Sketch 49.3 (51167) - http://www.bohemiancoding.com/sketch -->
    <title>icon</title>
    <desc>Created with Sketch.</desc>
    <defs></defs>
    <g id="Page-1" stroke="none" stroke-width="1" fill="none" fill-rule="evenodd">
        <g id="Menu" transform="translate(-80.000000, -439.000000)">
            <g id="light-menu" transform="translate(50.000000, 85.000000)">
                <g id="menu">
                    <g transform="translate(0.000000, 328.000000)">
                        <g id="item-copy">
                            <g id="icon" transform="translate(24.000000, 20.000000)">
                                <rect id="bound" x="0" y="0" width="48" height="48"></rect>
                                <path d="M31.4996425,38.9982177 L35.9995865,38.9982177 L35.9995865,22.8003275 L23.9989857,9.70082236 L11.9998849,22.7999665 L11.9998849,38.9982177 L16.499829,38.9982177 L16.499829,29.9928708 C16.499829,28.3373878 17.8453123,26.9910885 19.4997917,26.9910885 L28.4996798,26.9910885 C30.1541592,26.9910885 31.4996425,28.3373878 31.4996425,29.9928708 L31.4996425,38.9982177 Z M28.4996798,40.4991088 L28.4996798,29.9928708 L19.4997917,29.9928708 L19.4997917,40.4991088 C19.4997917,40.9133548 19.3317938,41.2885776 19.0602972,41.5602389 C18.7888005,41.8319002 18.4138052,42 17.9998103,42 L11.9998849,42 C10.3454055,42 8.99992224,40.6537006 8.99992224,38.9982177 L8.99992224,26.0749572 L8.60617714,26.5047997 C8.0466841,27.1156624 7.0971959,27.1561865 6.48670349,26.5963541 C5.87621108,26.0365217 5.83421161,25.0864576 6.39370465,24.4755949 L22.8934995,6.46490103 C23.4619924,5.84503299 24.5374791,5.84503299 25.105972,6.46490103 L41.6057668,24.4755949 C42.1652599,25.0864576 42.1247604,26.0365217 41.512768,26.5963541 C41.2247716,26.8605109 40.8617761,26.9910885 40.5002806,26.9910885 C40.0937856,26.9910885 39.6902906,26.8274913 39.3932943,26.5047997 L38.9995492,26.0749991 L38.9995492,38.9982177 C38.9995492,40.6537006 37.654066,42 35.9995865,42 L29.9996611,42 C29.1716714,42 28.4996798,41.3276008 28.4996798,40.4991088 Z" id="Fill-1" fill="#332F20"></path>
                            </g>
                        </g>
                    </g>
                </g>
            </g>
        </g>
    </g>
</svg>