<?xml version="1.0" encoding="UTF-8"?>
<svg width="36px" height="40px" viewBox="0 0 36 40" version="1.1" xmlns="http://www.w3.org/2000/svg" xmlns:xlink="http://www.w3.org/1999/xlink">
    <!-- Generator: Sketch 49.3 (51167) - http://www.bohemiancoding.com/sketch -->
    <title>icon</title>
    <desc>Created with Sketch.</desc>
    <defs></defs>
    <g id="Page-1" stroke="none" stroke-width="1" fill="none" fill-rule="evenodd">
        <g id="Menu" transform="translate(-81.000000, -880.000000)">
            <g id="light-menu" transform="translate(50.000000, 85.000000)">
                <g id="menu">
                    <g transform="translate(0.000000, 328.000000)">
                        <g id="item-4" transform="translate(24.000000, 442.000000)">
                            <g id="icon" transform="translate(0.000000, 20.000000)">
                                <rect id="bound" x="0" y="0" width="48" height="48"></rect>
                                <path d="M22.0000765,7.89473684 C21.447109,7.89473684 21.0001353,7.47031579 21.0001353,6.94736842 C21.0001353,6.42442105 21.447109,6 22.0000765,6 L23.9999588,6 L25.9998412,6 L27.9997235,6 C28.552691,6 28.9996647,6.42442105 28.9996647,6.94736842 C28.9996647,7.47031579 28.552691,7.89473684 27.9997235,7.89473684 L26.9997824,7.89473684 L26.9997824,10.7368421 C26.9997824,11.7817895 26.1028351,12.6315789 24.9999,12.6315789 C23.8979648,12.6315789 23.0000176,11.7817895 23.0000176,10.7368421 L23.0000176,7.89473684 L22.0000765,7.89473684 Z M25,42.1052632 C16.7284866,42.1052632 9.99988236,35.7304211 9.99988236,27.8947368 C9.99988236,20.0590526 16.7284866,13.6842105 25,13.6842105 C33.2715134,13.6842105 40.0001176,20.0590526 40.0001176,27.8947368 C40.0001176,35.7304211 33.2715134,42.1052632 25,42.1052632 Z M25,11.7894737 C34.3744486,11.7894737 42,19.0141053 42,27.8947368 C42,36.7753684 34.3744486,44 25,44 C15.6265514,44 8,36.7753684 8,27.8947368 C8,19.0141053 15.6265514,11.7894737 25,11.7894737 Z M38.9998765,15.5789474 C38.7438915,15.5789474 38.4879066,15.4861053 38.2929181,15.3013684 C37.9019411,14.9309474 37.9019411,14.3322105 38.2929181,13.9617895 L40.2928004,12.0670526 C40.6837774,11.6966316 41.3167402,11.6966316 41.7067173,12.0670526 C42.0976943,12.4374737 42.0976943,13.0362105 41.7067173,13.4066316 L39.7068349,15.3013684 C39.5118464,15.4861053 39.2558614,15.5789474 38.9998765,15.5789474 Z M25.9999412,24.4503158 C27.72084,24.8737895 28.9997647,26.3450526 28.9997647,28.1052632 C28.9997647,30.1951579 27.2058702,31.8947368 25,31.8947368 C22.7941298,31.8947368 21.0002353,30.1951579 21.0002353,28.1052632 C21.0002353,26.3450526 22.27916,24.8737895 24.0000588,24.4503158 L24.0000588,16.7368421 C24.0000588,16.2138947 24.4470325,15.7894737 25,15.7894737 C25.5529675,15.7894737 25.9999412,16.2138947 25.9999412,16.7368421 L25.9999412,24.4503158 Z M25,30 C26.1029351,30 26.9998824,29.1502105 26.9998824,28.1052632 C26.9998824,27.0603158 26.1029351,26.2105263 25,26.2105263 C23.8980648,26.2105263 23.0001176,27.0603158 23.0001176,28.1052632 C23.0001176,29.1502105 23.8980648,30 25,30 Z" id="Fill-1" stroke="#332F20" stroke-width="0.552631579" fill="#332F20"></path>
                            </g>
                        </g>
                    </g>
                </g>
            </g>
        </g>
    </g>
</svg>