<?xml version="1.0" encoding="UTF-8"?>
<svg width="36px" height="36px" viewBox="0 0 36 36" version="1.1" xmlns="http://www.w3.org/2000/svg" xmlns:xlink="http://www.w3.org/1999/xlink">
    <!-- Generator: Sketch 49.3 (51167) - http://www.bohemiancoding.com/sketch -->
    <title>icon</title>
    <desc>Created with Sketch.</desc>
    <defs></defs>
    <g id="Page-1" stroke="none" stroke-width="1" fill="none" fill-rule="evenodd">
        <g id="Menu" transform="translate(-80.000000, -1223.000000)">
            <g id="light-menu" transform="translate(50.000000, 85.000000)">
                <g id="menu">
                    <g transform="translate(0.000000, 328.000000)">
                        <g id="item-10" transform="translate(24.000000, 784.000000)">
                            <g id="icon" transform="translate(0.000000, 20.000000)">
                                <rect id="bound" x="0" y="0" width="48" height="48"></rect>
                                <path d="M39,24.8835 L35.9115,25.2885 C35.289,25.368 34.782,25.83 34.644,26.442 C34.377,27.6225 33.9105,28.746 33.2625,29.781 C32.931,30.3105 32.9625,30.99 33.3405,31.4865 L35.2335,33.969 L34.032,35.1765 L31.491,33.3075 C30.993,32.943 30.3255,32.919 29.8035,33.246 C28.767,33.8985 27.6375,34.3665 26.4495,34.6395 C25.8405,34.779 25.38,35.283 25.2975,35.904 L24.8865,39 L23.118,39 L22.7205,35.919 C22.6395,35.295 22.1775,34.788 21.564,34.6485 C20.388,34.3815 19.266,33.921 18.231,33.2775 C17.7045,32.9505 17.031,32.979 16.536,33.354 L14.0385,35.2365 L12.819,34.0305 L14.6745,31.488 C15.0375,30.9915 15.06,30.324 14.733,29.8035 C14.0685,28.7505 13.5975,27.6105 13.329,26.4165 C13.191,25.797 12.6795,25.3335 12.051,25.2555 L9,24.876 L9,23.121 L12.0735,22.731 C12.6975,22.653 13.206,22.1925 13.347,21.5805 C13.6245,20.379 14.103,19.239 14.7705,18.1935 C15.1125,17.658 15.0795,16.9635 14.688,16.4625 L12.7785,14.022 L13.9545,12.8385 L16.461,14.7435 C16.959,15.123 17.6415,15.1545 18.168,14.8185 C19.2135,14.1615 20.352,13.6875 21.5535,13.4145 C22.1655,13.275 22.626,12.768 22.7085,12.1455 L23.118,9 L24.8715,9 L25.254,12.129 C25.332,12.7575 25.794,13.2705 26.412,13.4115 C27.585,13.6755 28.7025,14.1345 29.7375,14.775 C30.267,15.1005 30.942,15.0705 31.4355,14.6925 L33.966,12.765 L35.1675,13.9575 L33.2715,16.476 C32.895,16.977 32.868,17.6595 33.207,18.186 C33.8715,19.227 34.35,20.361 34.6305,21.5625 C34.7715,22.1715 35.277,22.629 35.8965,22.71 L39,23.1165 L39,24.8835 Z M40.695,20.313 L37.275,19.8645 C37.014,19.0395 36.678,18.243 36.27,17.481 L38.3505,14.718 C38.802,14.118 38.742,13.2795 38.211,12.75 L35.154,9.7155 C34.62,9.186 33.7815,9.1335 33.189,9.5865 L30.4065,11.706 C29.667,11.322 28.9005,11.0055 28.11,10.761 L27.6885,7.3185 C27.597,6.5655 26.9595,6 26.2005,6 L21.7995,6 C21.0465,6 20.409,6.5595 20.313,7.3065 L19.863,10.764 C19.0395,11.019 18.2445,11.3505 17.4825,11.7525 L14.724,9.6555 C14.1255,9.1995 13.2825,9.2595 12.7515,9.7905 L9.7185,12.846 C9.1845,13.3815 9.135,14.2305 9.6,14.8275 L11.697,17.5095 C11.292,18.2685 10.959,19.062 10.701,19.881 L7.311,20.3115 C6.5625,20.4075 6,21.0435 6,21.7995 L6,26.2005 C6,26.958 6.564,27.5955 7.314,27.6885 L10.677,28.107 C10.932,28.935 11.2665,29.7375 11.676,30.5085 L9.636,33.3015 C9.1995,33.9015 9.2655,34.7295 9.792,35.2515 L12.8475,38.283 C13.3785,38.8095 14.2125,38.865 14.808,38.4165 L17.5545,36.3435 C18.3,36.732 19.074,37.0515 19.875,37.299 L20.313,40.692 C20.409,41.4405 21.045,42 21.7995,42 L26.2005,42 C26.952,42 27.588,41.4435 27.687,40.698 L28.14,37.2885 C28.956,37.035 29.745,36.7065 30.5025,36.3045 L33.2955,38.3595 C33.897,38.799 34.725,38.7375 35.25,38.2095 L38.2845,35.1555 C38.811,34.623 38.865,33.7845 38.4105,33.1875 L36.3315,30.4605 C36.723,29.7135 37.0455,28.935 37.2945,28.1325 L40.695,27.687 C41.442,27.591 42,26.9535 42,26.2005 L42,21.7995 C42,21.0465 41.442,20.4105 40.695,20.313 L40.695,20.313 Z M24,16.5207 C19.8645,16.5207 16.5,19.8852 16.5,24.0207 C16.5,28.1562 19.8645,31.5207 24,31.5207 C28.1355,31.5207 31.5,28.1562 31.5,24.0207 C31.5,19.8852 28.1355,16.5207 24,16.5207 M24,28.5207 C21.519,28.5207 19.5,26.5017 19.5,24.0207 C19.5,21.5397 21.519,19.5207 24,19.5207 C26.481,19.5207 28.5,21.5397 28.5,24.0207 C28.5,26.5017 26.481,28.5207 24,28.5207" id="Fill-1" fill="#332F20"></path>
                            </g>
                        </g>
                    </g>
                </g>
            </g>
        </g>
    </g>
</svg>