<?xml version="1.0" encoding="UTF-8"?>
<svg width="36px" height="34px" viewBox="0 0 36 34" version="1.1" xmlns="http://www.w3.org/2000/svg" xmlns:xlink="http://www.w3.org/1999/xlink">
    <!-- Generator: Sketch 49.3 (51167) - http://www.bohemiancoding.com/sketch -->
    <title>icon</title>
    <desc>Created with Sketch.</desc>
    <defs></defs>
    <g id="Page-1" stroke="none" stroke-width="1" fill="none" fill-rule="evenodd">
        <g id="Menu" transform="translate(-80.000000, -1077.000000)">
            <g id="light-menu" transform="translate(50.000000, 85.000000)">
                <g id="menu">
                    <g transform="translate(0.000000, 328.000000)">
                        <g id="item-8" transform="translate(24.000000, 636.000000)">
                            <g id="icon" transform="translate(0.000000, 20.000000)">
                                <rect id="bound" x="0" y="0" width="48" height="48"></rect>
                                <path d="M39.2131579,25.2193614 L27.1627363,40.4793004 C26.3104317,41.4652824 25.1730253,42 23.9996061,42 C22.8261868,42 21.690281,41.4652824 20.881492,40.5333903 L8.7915984,25.2206914 C5.05137398,21.2691096 5.06955515,14.8937057 8.8461419,10.9687642 C10.6888003,9.05398084 13.1406763,8 15.7486081,8 C18.3300552,8 20.75713,9.03268231 22.5932473,10.9106945 L23.9944985,12.1439825 L25.4029388,10.916711 C27.2397793,9.03488801 29.6707395,8 32.2534551,8 C34.8613869,8 37.3132629,9.05398084 39.1559213,10.9687642 C42.9290981,14.8932654 42.9476841,21.2676791 39.2131579,25.2193614 Z M36.8994471,23.251433 C36.9373634,23.2006361 36.9787673,23.1517099 37.0236595,23.1049981 C39.661602,20.3572299 39.6631025,15.889402 37.02516,13.1447246 C35.7497043,11.8202942 34.055599,11.0908529 32.2534551,11.0908529 C30.4528118,11.0908529 28.7587065,11.8202942 27.4832508,13.1462701 C27.4432746,13.1876539 27.401574,13.2262252 27.3583843,13.2619821 L25.1097372,15.2216051 C24.8147125,15.5562519 24.4074838,15.7277504 23.9988558,15.7277504 C23.6537325,15.7277504 23.3086092,15.6056617 23.0250079,15.3583935 L20.6387754,13.2581904 C20.5973313,13.2234949 20.5572738,13.1861875 20.5188124,13.1462701 C19.2433567,11.8202942 17.5492514,11.0908529 15.7486081,11.0908529 C13.9464642,11.0908529 12.2523589,11.8202942 10.9769032,13.1462701 C8.3475107,15.8789566 8.33749842,20.3232294 10.9468664,23.0735344 C10.9920217,23.1179581 11.0350059,23.1657556 11.0754884,23.216887 L23.165308,38.5289722 C23.5614495,38.9817821 24.3942471,39.0358721 24.8789203,38.4748823 L36.8994471,23.251433 Z" id="Fill-1" fill="#332F20"></path>
                            </g>
                        </g>
                    </g>
                </g>
            </g>
        </g>
    </g>
</svg>