<?xml version="1.0" encoding="UTF-8"?>
<svg width="36px" height="36px" viewBox="0 0 36 36" version="1.1" xmlns="http://www.w3.org/2000/svg" xmlns:xlink="http://www.w3.org/1999/xlink">
    <!-- Generator: Sketch 49.3 (51167) - http://www.bohemiancoding.com/sketch -->
    <title>icon</title>
    <desc>Created with Sketch.</desc>
    <defs></defs>
    <g id="Page-1" stroke="none" stroke-width="1" fill="none" fill-rule="evenodd">
        <g id="Menu" transform="translate(-80.000000, -967.000000)">
            <g id="light-menu" transform="translate(50.000000, 85.000000)">
                <g id="menu">
                    <g transform="translate(0.000000, 328.000000)">
                        <g id="item-5" transform="translate(24.000000, 530.000000)">
                            <g id="icon" transform="translate(0.000000, 20.000000)">
                                <rect id="bound" x="0" y="0" width="48" height="48"></rect>
                                <path d="M34.5,19 C38.6355,19 42,22.3645 42,26.5 C42,30.6355 38.6355,34 34.5,34 L32.8493188,34 C32.1525063,37.419222 29.1219553,40 25.5,40 L13.5,40 C9.3645,40 6,36.6355 6,32.5 L6,20.2825 L6,17.50045 C6,15.84595 7.3455,14.50045 9,14.50045 L30,14.50045 C31.6545,14.50045 33,15.84595 33,17.50045 L33,19 L34.5,19 Z M34.5,22 L33,22 L33,31 L34.5,31 C36.981,31 39,28.981 39,26.5 C39,24.019 36.981,22 34.5,22 Z M30,20.2825 L30,17.50045 L9,17.50045 L9,20.818975 L9,32.5 C9,34.981 11.019,37 13.5,37 L25.5,37 C27.981,37 30,34.981 30,32.5 L30,20.2825 Z M12,13 C11.172,13 10.5,12.3295 10.5,11.5 L10.5,5.5 C10.5,4.6705 11.172,4 12,4 C12.828,4 13.5,4.6705 13.5,5.5 L13.5,11.5 C13.5,12.3295 12.828,13 12,13 Z M19.5,13 C18.672,13 18,12.3295 18,11.5 L18,5.5 C18,4.6705 18.672,4 19.5,4 C20.328,4 21,4.6705 21,5.5 L21,11.5 C21,12.3295 20.328,13 19.5,13 Z M27,13 C26.172,13 25.5,12.3295 25.5,11.5 L25.5,5.5 C25.5,4.6705 26.172,4 27,4 C27.828,4 28.5,4.6705 28.5,5.5 L28.5,11.5 C28.5,12.3295 27.828,13 27,13 Z" id="Fill-1" fill="#332F20"></path>
                            </g>
                        </g>
                    </g>
                </g>
            </g>
        </g>
    </g>
</svg>