<?xml version="1.0" encoding="UTF-8"?>
<svg width="19px" height="13px" viewBox="0 0 19 13" version="1.1" xmlns="http://www.w3.org/2000/svg" xmlns:xlink="http://www.w3.org/1999/xlink">
    <!-- Generator: Sketch 49.3 (51167) - http://www.bohemiancoding.com/sketch -->
    <title>Imported Layers Copy 2</title>
    <desc>Created with Sketch.</desc>
    <defs></defs>
    <g id="Page-1" stroke="none" stroke-width="1" fill="none" fill-rule="evenodd">
        <g id="Chat" transform="translate(-672.000000, -637.000000)" fill="#E76E4F">
            <path d="M688.03272,637.521513 C687.400573,637.521513 686.82683,637.744716 686.413415,638.107044 L678.871166,644.699027 L675.909693,642.110678 C675.495133,641.748349 674.922536,641.524146 674.290389,641.524146 C673.024949,641.524146 672,642.42096 672,643.526963 C672,644.079465 672.256524,644.579919 672.671084,644.942248 L677.251861,648.945881 C677.665276,649.30821 678.239018,649.531413 678.871166,649.531413 C679.503313,649.531413 680.07591,649.30821 680.49047,648.945881 L689.652025,640.938614 C690.066585,640.576285 690.323108,640.075831 690.323108,639.522329 C690.323108,638.417326 689.297014,637.521513 688.03272,637.521513" id="Imported-Layers-Copy-2"></path>
        </g>
    </g>
</svg>