<?xml version="1.0" encoding="UTF-8"?>
<svg width="32px" height="15px" viewBox="0 0 32 15" version="1.1" xmlns="http://www.w3.org/2000/svg" xmlns:xlink="http://www.w3.org/1999/xlink">
    <!-- Generator: Sketch 49.3 (51167) - http://www.bohemiancoding.com/sketch -->
    <title>Imported Layers Copy 2</title>
    <desc>Created with Sketch.</desc>
    <defs></defs>
    <g id="Page-1" stroke="none" stroke-width="1" fill="none" fill-rule="evenodd">
        <g id="Chat" transform="translate(-664.000000, -492.000000)" fill="#E76E4F">
            <path d="M677.382413,502.277198 L673.703395,505.492687 C673.229611,505.906777 672.575215,506.161866 671.852761,506.161866 C671.130307,506.161866 670.474601,505.906777 670.002127,505.492687 L664.766953,500.917106 C664.29317,500.503016 664,499.931068 664,499.299638 C664,498.035634 665.17137,497.010704 666.617587,497.010704 C667.340041,497.010704 667.994438,497.266936 668.468221,497.681026 L671.852761,500.639139 L680.472474,493.105445 C680.944949,492.691355 681.600654,492.436266 682.323108,492.436266 C683.768016,492.436266 684.940695,493.460052 684.940695,494.722913 C684.940695,495.355487 684.647526,495.927435 684.173742,496.341525 L681.084335,499.04169 L682.912065,500.639139 L691.531779,493.105445 C692.004254,492.691355 692.659959,492.436266 693.382413,492.436266 C694.827321,492.436266 696,493.460052 696,494.722913 C696,495.355487 695.70683,495.927435 695.233047,496.341525 L684.762699,505.492687 C684.288916,505.906777 683.634519,506.161866 682.912065,506.161866 C682.189611,506.161866 681.533906,505.906777 681.061431,505.492687 L677.382413,502.277198 Z" id="Imported-Layers-Copy-2"></path>
        </g>
    </g>
</svg>