<?xml version="1.0" encoding="UTF-8"?>
<svg width="86px" height="88px" viewBox="0 0 86 88" version="1.1" xmlns="http://www.w3.org/2000/svg" xmlns:xlink="http://www.w3.org/1999/xlink">
    <!-- Generator: Sketch 49.3 (51167) - http://www.bohemiancoding.com/sketch -->
    <title>man-in-a-party-dancing-with-people</title>
    <desc>Created with Sketch.</desc>
    <defs></defs>
    <g id="Page-1" stroke="none" stroke-width="1" fill="none" fill-rule="evenodd">
        <g id="Payment-Success" transform="translate(-340.000000, -526.000000)" fill="#009344" fill-rule="nonzero">
            <g id="bottom-sheet" transform="translate(50.000000, 429.000000)">
                <g id="man-in-a-party-dancing-with-people" transform="translate(290.000000, 97.000000)">
                    <path d="M30.0228367,48.9712404 L30.0228367,60.6314202 C30.0228367,61.5700037 30.7837394,62.3310642 31.7229541,62.3310642 C32.6621688,62.3310642 33.4230716,61.5700037 33.4230716,60.6314202 L33.4230716,50.0368514 L28.0377358,44.3526459 C26.8615083,43.1107743 26.3974239,41.3762569 26.796811,39.7129064 L28.0928073,34.3125798 L26.5781028,34.3125798 L27.7142495,32.5892661 C27.9537872,32.698778 28.2057908,32.7852514 28.4704183,32.8389028 C28.7437248,32.0320807 29.207178,31.3275119 29.803655,30.7712734 C30.5853872,30.0430349 31.5951376,29.5727963 32.7008294,29.4563413 C32.8663596,29.4389835 33.0334679,29.4277798 33.2035743,29.426833 L33.2035743,23.8638165 C33.2035743,22.9250752 32.4425138,22.1641725 31.5039303,22.1641725 C30.5653468,22.1641725 29.8042862,22.9257064 29.8042862,23.8638165 L29.8042862,25.9150349 C29.6010422,25.8784257 29.392433,25.8560183 29.1784587,25.8560183 C28.9630642,25.8560183 28.7535083,25.8782679 28.548844,25.9153505 L28.548844,21.0752073 C28.548844,20.1364661 27.7879413,19.3755633 26.8487266,19.3755633 C25.9101431,19.3755633 25.1490826,20.1364661 25.1490826,21.0752073 L25.1490826,30.3046642 L24.3258495,31.5537945 L23.5026165,30.3046642 L23.5026165,21.0752073 C23.5026165,20.1364661 22.741556,19.3755633 21.8029725,19.3755633 C20.864389,19.3755633 20.1033284,20.1364661 20.1033284,21.0752073 L20.1033284,25.9153505 C19.8986642,25.8787413 19.6891083,25.8560183 19.4737138,25.8560183 C19.039611,25.8560183 18.6253908,25.9382312 18.2409945,26.0819853 L18.2409945,18.178033 C18.2409945,17.2392917 17.4799339,16.478389 16.5408771,16.478389 C15.6018202,16.478389 14.841233,17.2394495 14.841233,18.178033 L14.841233,27.4074899 L13.7977138,28.9908367 L13.7977138,21.0752073 C13.7977138,20.1364661 13.0366532,19.3755633 12.0980697,19.3755633 C11.1594862,19.3755633 10.3984257,20.1364661 10.3984257,21.0752073 L10.3984257,23.184811 C10.0140294,23.0413725 9.60028257,22.958844 9.16570642,22.958844 C7.21784587,22.958844 5.63875963,24.5377725 5.63875963,26.485633 C5.63875963,28.4334936 7.21768807,30.0125798 9.16570642,30.0125798 C9.59980917,30.0125798 10.0140294,29.930367 10.3984257,29.7866128 L10.3984257,30.8141945 C10.3984257,31.0209101 10.4404,31.2236807 10.5128294,31.4149321 L9.16570642,31.4149321 L6.13077431,31.4149321 L3.48907523,27.4071743 L3.48907523,18.1783486 C3.48907523,17.2396073 2.72801468,16.4787046 1.78943119,16.4787046 C0.850847706,16.4787046 0.0896293578,17.2394495 0.0896293578,18.178033 L0.0896293578,27.9173358 C0.0896293578,28.2499743 0.187148624,28.5748807 0.370194495,28.8526055 L4.95438899,35.8077174 L4.95438899,43.238433 C4.93261284,43.3474716 4.92062018,43.4599817 4.92062018,43.5754899 L4.92062018,57.7344037 C4.92062018,58.673145 5.68152294,59.4340477 6.62026422,59.4340477 C7.5590055,59.4340477 8.32038165,58.673145 8.32038165,57.7344037 L8.32038165,46.0739083 L9.16539083,46.0739083 L10.0104,46.0739083 L10.0104,57.7340881 C10.0104,58.6728294 10.7714606,59.4337321 11.7105174,59.4337321 C12.6495743,59.4337321 13.4106349,58.6728294 13.4106349,57.7340881 L13.4106349,43.5751743 C13.4106349,43.4598239 13.3986422,43.3473138 13.3768661,43.2381174 L13.3768661,35.8425908 L15.2633431,38.7045761 L15.2633431,46.1352917 C15.241567,46.2443303 15.2295743,46.3568404 15.2295743,46.4723486 L15.2295743,60.6314202 C15.2295743,61.5700037 15.9904771,62.3310642 16.9296917,62.3310642 C17.868433,62.3310642 18.6293358,61.5700037 18.6293358,60.6314202 L18.6293358,48.9712404 L19.474345,48.9712404 L20.3193541,48.9712404 L20.3193541,60.6314202 C20.3193541,61.5700037 21.0802569,62.3310642 22.0189982,62.3310642 C22.9577394,62.3310642 23.7186422,61.5700037 23.7186422,60.6314202 L23.7186422,46.4723486 C23.7186422,46.3569982 23.7064917,46.2444881 23.6848734,46.1352917 L23.6848734,38.7045761 L24.3266385,37.7306459 L24.9682459,38.7045761 L24.9682459,46.1352917 C24.9464697,46.2443303 24.9344771,46.3568404 24.9344771,46.4723486 L24.9344771,60.6314202 C24.9344771,61.5700037 25.6953798,62.3310642 26.6341211,62.3310642 C27.5728624,62.3310642 28.3342385,61.5700037 28.3342385,60.6314202 L28.3342385,48.9712404 L29.1792477,48.9712404 L30.0228367,48.9712404 Z M19.4722936,34.312422 L16.4378349,34.312422 L15.3992073,32.7363339 L16.4335743,31.1670312 C17.046778,32.2084991 18.1761394,32.9095963 19.4721358,32.9095963 C19.9950789,32.9095963 20.489145,32.7926679 20.9357138,32.5889505 L22.0718606,34.3122642 L19.4722936,34.3122642 L19.4722936,34.312422 Z" id="Shape"></path>
                    <path d="M37.0789394,31.2186312 C37.253622,30.9391706 37.4410862,30.6687046 37.6462239,30.412756 C37.8374752,30.1741651 38.0378789,29.9439376 38.2532734,29.7275963 C38.6313578,29.3476183 39.0452624,29.0042495 39.4889908,28.7011193 C39.9742202,28.3699009 40.4962165,28.0898092 41.0463009,27.8638422 L41.0463009,25.1380367 C41.0463009,24.1994532 40.2852404,23.4383927 39.3466569,23.4383927 C38.9280183,23.4383927 38.5494606,23.5958752 38.2534312,23.8463009 L38.2534312,21.0752073 C38.2534312,20.1364661 37.4923706,19.3755633 36.5533138,19.3755633 C35.6142569,19.3755633 34.8536697,20.1364661 34.8536697,21.0752073 L34.8536697,29.6961945 C35.2437468,29.827956 35.6065248,30.0065835 35.9420037,30.2210312 C36.3734239,30.496389 36.754822,30.8337615 37.0789394,31.2186312 Z" id="Shape"></path>
                    <polygon id="Shape" points="35.9625174 52.7181578 34.6341725 51.3159633 34.6341725 61.4666459 35.9625174 59.8432183"></polygon>
                    <path d="M83.8121284,17.7521358 C82.8737028,17.7521358 82.1124844,18.5131963 82.1124844,19.4517798 L82.1124844,28.6812367 L79.4709431,32.6889945 L76.4366422,32.6889945 L75.0895193,32.6889945 C75.1619486,32.4972697 75.2039229,32.2949725 75.2039229,32.0882569 L75.2039229,31.0606752 C75.5883193,31.2041138 76.0022239,31.2866422 76.4361688,31.2866422 C78.3840294,31.2866422 79.9629578,29.7077138 79.9629578,27.7598532 C79.9629578,25.8119927 78.3840294,24.2329064 76.4361688,24.2329064 C76.0022239,24.2329064 75.5876881,24.3151193 75.2039229,24.4588734 L75.2039229,22.3492697 C75.2039229,21.4105284 74.4430202,20.6496257 73.5036477,20.6496257 C72.565222,20.6496257 71.8041615,21.4105284 71.8041615,22.3492697 L71.8041615,30.2653725 L70.760011,28.6820257 L70.760011,19.451622 C70.760011,18.5128807 69.9991083,17.751978 69.0605248,17.751978 C68.1217835,17.751978 67.3602495,18.5130385 67.3602495,19.451622 L67.3602495,27.3555743 C66.9758532,27.2121358 66.5619486,27.1296073 66.1275303,27.1296073 C65.9124514,27.1296073 65.7028954,27.1518569 65.4979156,27.1889394 L65.4979156,22.3489541 C65.4979156,21.4102128 64.7370128,20.6493101 63.7982716,20.6493101 C62.8598459,20.6493101 62.0987853,21.4102128 62.0987853,22.3489541 L62.0987853,31.578411 L61.2752367,32.8275413 L61.1458422,32.631556 L61.1458422,33.0236844 L61.1458422,38.8088807 L61.1458422,39.2010092 L61.2752367,39.0050239 L61.916844,39.9789541 L61.916844,47.4096697 C61.8952257,47.5187083 61.883233,47.6312183 61.883233,47.7467266 L61.883233,61.9057982 C61.883233,62.8443817 62.6441358,63.6054422 63.5831927,63.6054422 C64.5219339,63.6054422 65.2828367,62.8443817 65.2828367,61.9057982 L65.2828367,50.2456183 L66.1278459,50.2456183 L66.972855,50.2456183 L66.972855,61.9057982 C66.972855,62.8443817 67.7337578,63.6054422 68.6723413,63.6054422 C69.6110826,63.6054422 70.3726165,62.8443817 70.3726165,61.9057982 L70.3726165,47.7465688 C70.3726165,47.6312183 70.3606239,47.5187083 70.3386899,47.4095119 L70.3386899,39.9787963 L72.225167,37.116811 L72.225167,44.5124954 C72.2035486,44.6215339 72.191556,44.734044 72.191556,44.8495523 L72.191556,59.0084661 C72.191556,59.9472073 72.9524587,60.7081101 73.8915156,60.7081101 C74.8305725,60.7081101 75.5911596,59.9472073 75.5911596,59.0084661 L75.5911596,47.3482862 L76.4361688,47.3482862 L77.2810202,47.3482862 L77.2810202,59.0084661 C77.2810202,59.9472073 78.0422385,60.7081101 78.9812954,60.7081101 C79.9203523,60.7081101 80.6809394,59.9472073 80.6809394,59.0084661 L80.6809394,44.8495523 C80.6809394,44.7342018 80.6689468,44.6216917 80.6470128,44.5124954 L80.6470128,37.081622 L85.2312073,30.1265101 C85.4142532,29.8487853 85.5119303,29.5238789 85.5119303,29.1912404 L85.5119303,19.4519376 C85.5124037,18.5136697 84.7515009,17.7521358 83.8121284,17.7521358 Z M69.1630936,35.5866422 L66.1287927,35.5866422 L63.5295413,35.5866422 L64.6658459,33.8633284 C65.1117835,34.0675193 65.6064807,34.1839743 66.1294239,34.1839743 C67.4254202,34.1839743 68.555255,33.4828771 69.1679853,32.4414092 L70.2023523,34.0107119 L69.1630936,35.5866422 Z" id="Shape"></path>
                    <path d="M60.6342606,41.5490459 C60.5392661,41.7440844 60.4363817,41.9353358 60.3155083,42.1183817 L53.6408037,52.2453945 L53.6408037,62.7818936 C53.6756771,63.022378 53.6935083,63.2649138 53.6935083,63.504767 L53.6935083,63.5863486 C53.7548917,63.5931339 53.8151706,63.6052844 53.8784477,63.6052844 C54.817189,63.6052844 55.5780917,62.8442239 55.5780917,61.9056404 L55.5780917,50.2454606 L56.4231009,50.2454606 L57.2681101,50.2454606 L57.2681101,61.9056404 C57.2681101,62.8442239 58.0290128,63.6052844 58.9680697,63.6052844 C59.9071266,63.6052844 60.6677138,62.8442239 60.6677138,61.9056404 L60.6677138,47.7465688 C60.6677138,47.6312183 60.6557211,47.5187083 60.6337872,47.4095119 L60.6337872,41.5490459 L60.6342606,41.5490459 Z" id="Shape"></path>
                    <path d="M50.7472587,22.3489541 C50.7472587,21.4102128 49.986356,20.6493101 49.0476147,20.6493101 C48.109189,20.6493101 47.347655,21.4102128 47.347655,22.3489541 L47.347655,22.5716073 C47.0511523,22.3205505 46.6730679,22.1635413 46.2544294,22.1635413 C45.3156881,22.1635413 44.5547853,22.9250752 44.5547853,23.8631853 L44.5547853,27.2451156 C45.5373945,27.2803046 46.4777138,27.4813394 47.347655,27.8254972 C47.5542128,27.9070789 47.7557211,27.9989174 47.9542312,28.0958055 C49.0323083,28.6241138 49.985567,29.3671853 50.7471009,30.2803633 L50.7471009,22.3489541 L50.7472587,22.3489541 Z" id="Shape"></path>
                    <path d="M14.0724404,14.8917284 C15.0864514,13.5610165 15.1318972,11.6893725 14.2935156,10.2253211 C13.3866495,8.64197431 9.42339083,5.62613578 11.6122092,3.87173578 C12.8270972,2.8978055 11.1070972,1.20100183 9.90483303,2.16435963 C8.4794422,3.30681835 8.34373578,5.06058716 8.83969541,6.72157064 C9.50071193,8.93453211 13.8431596,11.2372807 11.9879266,13.6728954 C11.0433468,14.9119266 13.1419046,16.1122972 14.0724404,14.8917284 Z" id="Shape"></path>
                    <path d="M77.0091339,4.57377982 C78.5580807,4.41692844 78.0370312,2.05768807 76.5046532,2.21264587 C74.6868183,2.39663853 73.619945,3.79441468 73.1332954,5.45839633 C72.4849028,7.67514495 74.8777541,11.968833 71.9966752,13.003989 C70.5305725,13.5307193 71.6391046,15.6789835 73.0834312,15.1599853 C74.6580991,14.5941211 75.713611,13.0478569 75.8060807,11.3636771 C75.905178,9.54205505 74.2181578,4.85639633 77.0091339,4.57377982 Z" id="Shape"></path>
                    <path d="M29.7209688,14.6259963 C29.9802312,16.2928183 31.1845468,17.7268881 32.8075009,18.1330606 C34.2966422,18.5057798 35.1861505,16.2581028 33.675233,15.879545 C30.705156,15.1355266 32.6593284,10.6254972 31.7941211,8.48401835 C31.1446239,6.87652844 29.9437798,5.59157798 28.1166349,5.58921101 C26.576367,5.58731743 26.2920147,7.98663853 27.849167,7.98853211 C30.6533982,7.99295046 29.4408771,12.8236257 29.7209688,14.6259963 Z" id="Shape"></path>
                    <path d="M59.2267009,5.97281835 C59.9364771,4.39089174 60.0322606,2.63475596 58.768455,1.31508991 C57.7033174,0.20213945 55.7751817,1.65893211 56.8519963,2.78355963 C58.7918092,4.80968807 54.4671927,7.28001835 53.3603963,8.73049908 C52.337233,10.0717835 52.1368294,11.9333284 52.9677945,13.3857028 C53.7299596,14.7178349 55.9675376,13.8033945 55.1944844,12.4509064 C53.6744147,9.79358532 58.2814899,8.08052844 59.2267009,5.97281835 Z" id="Shape"></path>
                    <path d="M37.4317761,8.50295413 C38.0782752,10.061211 39.5882459,11.1689541 41.2609064,11.1788954 C42.795967,11.1885211 43.1276587,8.79409174 41.5698752,8.78399266 C38.5081174,8.76458349 39.3386092,3.92002202 37.9903817,2.04474862 C36.9782642,0.636715596 35.5074275,-0.327115596 33.7320404,0.103673394 C32.2346936,0.466766972 32.526778,2.86514128 34.0400624,2.49810275 C36.7669725,1.83755963 36.7325725,6.81782752 37.4317761,8.50295413 Z" id="Shape"></path>
                    <path d="M20.3761615,15.1060183 C22.5558275,15.1060183 22.5558275,11.7259817 20.3761615,11.7259817 C18.1964954,11.7259817 18.1964954,15.1060183 20.3761615,15.1060183 Z" id="Shape"></path>
                    <path d="M4.20027156,10.2773945 C6.37977982,10.2773945 6.37977982,6.8973578 4.20027156,6.8973578 C2.0206055,6.8973578 2.0206055,10.2773945 4.20027156,10.2773945 Z" id="Shape"></path>
                    <path d="M49.5893358,2.55159633 C47.4098275,2.55159633 47.4098275,5.93163303 49.5893358,5.93163303 C51.768844,5.93163303 51.768844,2.55159633 49.5893358,2.55159633 Z" id="Shape"></path>
                    <path d="M46.4505725,14.623156 C48.6303963,14.623156 48.6303963,11.2431193 46.4505725,11.2431193 C44.2710642,11.2431193 44.2710642,14.623156 46.4505725,14.623156 Z" id="Shape"></path>
                    <path d="M65.0409321,9.55325872 C67.2204404,9.55325872 67.2204404,6.17322202 65.0409321,6.17322202 C62.8614239,6.17322202 62.8612661,9.55325872 65.0409321,9.55325872 Z" id="Shape"></path>
                    <path d="M84.3554275,9.79453211 C82.1759193,9.79453211 82.1759193,13.1745688 84.3554275,13.1745688 C86.5349358,13.1745688 86.5350936,9.79453211 84.3554275,9.79453211 Z" id="Shape"></path>
                    <path d="M52.1784881,50.0769321 L58.2996367,40.7900367 C58.5822532,40.3617725 58.7323193,39.8599743 58.7323193,39.3472881 L58.7323193,35.5872734 L58.7323193,35.1468587 L58.7323193,33.3197138 L58.7323193,27.9957615 L58.7323193,20.8430862 C58.7323193,20.7788624 58.7274275,20.7155853 58.7226936,20.6524661 C58.6247009,19.2936661 57.4936037,18.2207963 56.1092404,18.2207963 C54.6606532,18.2207963 53.4871083,19.3951303 53.4871083,20.843244 L53.4871083,23.5559523 L53.4871083,28.7047486 L53.4871083,32.6100954 L53.4871083,35.5869578 L53.4871083,38.5605064 L52.2120991,40.4943229 L49.4118128,44.7439853 L43.089945,44.7439853 L42.5114569,44.7439853 L38.9600514,44.7439853 L34.5772073,40.1171853 L35.4463596,36.4961908 L35.7873615,35.0760073 C35.7883083,35.0711156 35.7887817,35.0659083 35.7902018,35.0610165 C35.8061394,34.9919009 35.8187633,34.9229431 35.8288624,34.8543009 C35.8321761,34.8200587 35.8380147,34.7867633 35.8419596,34.7523633 C35.8757284,34.4516 35.8560037,34.1546239 35.7897284,33.8712183 C35.7270826,33.6021725 35.6241982,33.3454349 35.4831266,33.1112624 C35.1329725,32.5304073 34.5603229,32.0843119 33.8491266,31.9132587 C33.8322422,31.9094716 33.8158312,31.9078936 33.7989468,31.9041064 C33.6091156,31.8621321 33.4199156,31.8394092 33.2330826,31.8394092 C33.2229835,31.8394092 33.2133578,31.8419339 33.2032587,31.8419339 C32.0312917,31.8553468 30.9729394,32.6593284 30.6870092,33.8505468 L30.5763927,34.311633 L30.4054972,35.0242495 L29.1453211,40.2754569 C28.9381321,41.1382972 29.1814569,42.0475303 29.7913468,42.6916624 L33.4229138,46.5256844 L34.6687303,47.8409321 L38.3769872,51.7560624 L38.3769872,51.7593761 L38.3769872,60.7047963 L38.0342495,61.1234349 L35.1563266,64.6405982 L29.6652661,71.3528587 C28.7869615,72.4273064 28.8964734,73.9992917 29.9163229,74.9413468 L36.5981284,81.1095193 C37.1022936,81.5750239 37.7401138,81.804778 38.3760404,81.804778 C39.0825028,81.804778 39.7869138,81.5208991 40.303545,80.961189 C41.2861541,79.8965248 41.2195633,78.2379083 40.1553725,77.2548257 L35.2890349,72.7626275 L39.7097505,67.3605651 L46.0341431,67.3605651 L46.0341431,85.3509761 C46.0341431,86.7990899 47.2086349,87.9734239 48.6565908,87.9734239 C50.1048624,87.9734239 51.2790385,86.7990899 51.2790385,85.3509761 L51.2790385,63.5053982 C51.2790385,63.327244 51.2602606,63.1530349 51.2263339,62.984822 L51.2263339,51.5222055 L52.1784881,50.0769321 Z" id="Shape"></path>
                    <path d="M38.3719376,37.1008734 C38.7732183,38.7803193 39.8692844,40.1888257 41.3454862,40.9986459 C41.8824734,41.2930972 42.4696404,41.5070716 43.0901028,41.6273138 C43.4658202,41.7002165 43.8525835,41.741244 44.2489725,41.741244 C46.6246239,41.741244 48.674422,40.3679266 49.6636587,38.3752514 C49.8945174,37.9102202 50.072356,37.4144183 50.1774495,36.890844 C50.2554018,36.5036073 50.2973761,36.1028 50.2973761,35.692367 C50.2973761,35.2196037 50.2375706,34.761989 50.1350018,34.3206275 C49.8162495,32.9477835 49.0319927,31.7565651 47.9545468,30.9192881 C47.761244,30.7690642 47.5584734,30.6314642 47.3479706,30.5053835 C46.9815633,30.2862018 46.5913284,30.103156 46.1799486,29.9646092 C45.6658422,29.791189 45.1206495,29.687989 44.5552587,29.6594275 C44.4533211,29.6540624 44.3524881,29.6439633 44.2491303,29.6439633 C43.3705101,29.6439633 42.5374936,29.8356881 41.7841651,30.172745 C41.5277431,30.2871486 41.2825248,30.4204881 41.0463009,30.5681872 C39.5147119,31.5276 38.4418422,33.1489761 38.2374936,35.0351376 C38.2337064,35.0693798 38.233233,35.103622 38.2283413,35.1378642 C38.2133505,35.3005541 38.205145,35.4652954 38.2032514,35.6312991 C38.2032514,35.6514972 38.2002532,35.6713798 38.2002532,35.6922092 C38.2002532,35.8877211 38.2114569,36.0803927 38.2297615,36.2711706 C38.2565872,36.5547339 38.3072404,36.8305651 38.3719376,37.1008734 Z" id="Shape"></path>
                </g>
            </g>
        </g>
    </g>
</svg>