<?xml version="1.0" encoding="UTF-8"?>
<svg width="60px" height="55px" viewBox="0 0 60 55" version="1.1" xmlns="http://www.w3.org/2000/svg" xmlns:xlink="http://www.w3.org/1999/xlink">
    <!-- Generator: Sketch 49.3 (51167) - http://www.bohemiancoding.com/sketch -->
    <title>map-location(1)</title>
    <desc>Created with Sketch.</desc>
    <defs></defs>
    <g id="Page-1" stroke="none" stroke-width="1" fill="none" fill-rule="evenodd">
        <g id="checkin-warning" transform="translate(-345.000000, -473.000000)" fill-rule="nonzero">
            <g id="bottom-sheet" transform="translate(50.000000, 429.000000)">
                <g id="map-location(1)" transform="translate(295.000000, 44.000000)">
                    <polygon id="Shape" fill="#FFFFFF" points="53.057 22.76 43.057 22.76 17.057 22.76 7.057 22.76 3.402 51.76 56.171 51.76"></polygon>
                    <path d="M53.057,23 L56.171,52 L3.402,52 L7.057,23 L17.057,23 L43.057,23 L53.057,23 Z M55.752,20 L53.057,20 L43.057,20 L17.057,20 L7.057,20 L4.411,20 L4.08,22.625 L0.425,51.625 L0,55 L3.402,55 L56.171,55 L59.51,55 L59.153,51.68 L56.039,22.68 L55.752,20 Z" id="Shape" fill="#556080"></path>
                    <path d="M13.684,47.76 C13.427,47.76 13.171,47.744 12.915,47.713 C12.697,47.687 12.477,47.646 12.262,47.589 C11.727,47.451 11.406,46.905 11.544,46.371 C11.682,45.836 12.227,45.511 12.762,45.653 C12.894,45.686 13.026,45.712 13.158,45.728 C13.561,45.778 13.969,45.765 14.373,45.713 C14.925,45.648 15.422,46.032 15.49,46.58 C15.559,47.128 15.171,47.628 14.623,47.697 C14.31,47.738 13.995,47.76 13.684,47.76 Z M18.334,46.602 C17.933,46.602 17.555,46.359 17.401,45.962 C17.202,45.446 17.459,44.867 17.973,44.669 C18.565,44.44 19.161,44.186 19.747,43.91 C20.25,43.675 20.843,43.891 21.077,44.39 C21.311,44.89 21.097,45.486 20.597,45.72 C19.969,46.015 19.328,46.288 18.694,46.533 C18.576,46.581 18.454,46.602 18.334,46.602 Z M9.987,44.87 C9.48,44.87 9.046,44.486 8.993,43.972 C8.973,43.775 8.965,43.577 8.965,43.38 C8.965,43.264 8.968,43.148 8.974,43.033 C8.997,42.564 9.073,42.091 9.199,41.627 C9.343,41.092 9.896,40.774 10.425,40.923 C10.958,41.067 11.274,41.615 11.129,42.149 C11.041,42.475 10.988,42.806 10.973,43.132 C10.969,43.214 10.966,43.297 10.966,43.38 C10.966,43.509 10.971,43.64 10.985,43.769 C11.041,44.319 10.64,44.809 10.091,44.866 C10.055,44.868 10.021,44.87 9.987,44.87 Z M23.666,43.871 C23.339,43.871 23.018,43.711 22.826,43.416 C22.525,42.952 22.657,42.333 23.12,42.032 C23.655,41.685 24.186,41.312 24.7,40.925 C25.144,40.593 25.768,40.684 26.101,41.121 C26.433,41.562 26.345,42.189 25.905,42.522 C25.353,42.937 24.783,43.337 24.21,43.71 C24.041,43.819 23.853,43.871 23.666,43.871 Z M28.425,40.221 C28.116,40.221 27.812,40.078 27.615,39.81 C27.29,39.364 27.388,38.738 27.835,38.413 C28.044,38.262 28.257,38.113 28.476,37.972 C28.853,37.727 29.257,37.495 29.676,37.284 C30.172,37.037 30.771,37.236 31.019,37.728 C31.267,38.221 31.068,38.823 30.575,39.071 C30.221,39.249 29.882,39.443 29.565,39.648 C29.377,39.771 29.193,39.898 29.013,40.03 C28.835,40.159 28.629,40.221 28.425,40.221 Z M12.469,39.748 C12.114,39.748 11.77,39.559 11.589,39.225 C11.325,38.74 11.506,38.133 11.991,37.87 C12.509,37.589 13.062,37.414 13.635,37.35 C13.925,37.317 14.228,37.318 14.526,37.358 C15.073,37.43 15.459,37.932 15.386,38.48 C15.314,39.026 14.825,39.411 14.264,39.34 C14.131,39.322 13.993,39.322 13.858,39.338 C13.542,39.372 13.235,39.47 12.945,39.627 C12.793,39.709 12.63,39.748 12.469,39.748 Z M33.903,37.896 C33.441,37.896 33.026,37.575 32.926,37.105 C32.811,36.564 33.155,36.033 33.695,35.918 C34.338,35.78 35.03,35.666 35.753,35.576 C36.306,35.495 36.8,35.896 36.868,36.445 C36.936,36.993 36.547,37.493 35.999,37.56 C35.334,37.643 34.699,37.748 34.113,37.873 C34.042,37.889 33.972,37.896 33.903,37.896 Z M39.863,37.279 C39.33,37.279 38.886,36.858 38.865,36.32 C38.843,35.768 39.271,35.302 39.823,35.28 L41.816,35.198 C42.366,35.148 42.836,35.599 42.861,36.152 C42.886,36.703 42.459,37.171 41.907,37.196 L39.905,37.278 C39.892,37.279 39.877,37.279 39.863,37.279 Z M45.842,36.836 C45.377,36.836 44.961,36.511 44.863,36.038 C44.752,35.497 45.099,34.968 45.64,34.856 C46.218,34.737 46.646,34.57 46.987,34.331 C47.424,33.99 48.089,34.046 48.425,34.48 C48.764,34.917 48.721,35.519 48.285,35.858 C48.23,35.9 48.175,35.941 48.116,35.98 C47.572,36.364 46.887,36.641 46.044,36.815 C45.977,36.829 45.908,36.836 45.842,36.836 Z M49.911,32.806 C49.813,32.806 49.714,32.791 49.615,32.761 C49.088,32.598 48.792,32.037 48.956,31.51 C49.009,31.339 49.042,31.169 49.053,31.004 L49.057,30.888 C49.057,30.659 49.013,30.426 48.927,30.194 C48.735,29.676 48.998,29.101 49.517,28.909 C50.031,28.718 50.611,28.98 50.802,29.499 C50.971,29.954 51.057,30.422 51.057,30.889 C51.057,30.973 51.054,31.056 51.049,31.139 C51.027,31.463 50.965,31.785 50.866,32.103 C50.734,32.531 50.338,32.806 49.911,32.806 Z M44.851,28.699 C44.415,28.699 44.014,28.412 43.89,27.97 C43.74,27.439 44.048,26.886 44.58,26.737 C45.359,26.517 46.177,26.451 46.966,26.557 C47.513,26.631 47.897,27.134 47.823,27.682 C47.75,28.229 47.257,28.613 46.698,28.539 C46.177,28.47 45.64,28.516 45.123,28.66 C45.032,28.687 44.942,28.699 44.851,28.699 Z" id="Shape" fill="#EBBA16"></path>
                    <path d="M40.844,9.931 C40.32,5.932 38.23,0.75 30.022,0.75 C21.815,0.75 19.724,5.932 19.2,9.931 C18.913,12.123 19.074,14.35 19.53,16.513 C22.039,28.406 28.24,35.535 29.707,37.09 C29.879,37.272 30.165,37.272 30.337,37.09 C31.804,35.535 38.005,28.406 40.514,16.513 C40.971,14.35 41.132,12.123 40.844,9.931 Z M30.022,17.672 C26.517,17.672 23.676,14.831 23.676,11.326 C23.676,7.821 26.517,4.981 30.022,4.981 C33.527,4.981 36.368,7.822 36.368,11.326 C36.368,14.831 33.527,17.672 30.022,17.672 Z" id="Shape" fill="#DD352E"></path>
                    <path d="M30.023,3.981 C25.972,3.981 22.677,7.276 22.677,11.326 C22.677,15.377 25.972,18.672 30.023,18.672 C34.074,18.672 37.369,15.377 37.369,11.326 C37.368,7.276 34.073,3.981 30.023,3.981 Z M30.023,16.672 C27.076,16.672 24.677,14.274 24.677,11.326 C24.677,8.378 27.075,5.981 30.023,5.981 C32.971,5.981 35.369,8.378 35.369,11.326 C35.369,14.274 32.97,16.672 30.023,16.672 Z" id="Shape" fill="#B02721"></path>
                </g>
            </g>
        </g>
    </g>
</svg>