<?xml version="1.0" encoding="UTF-8"?>
<svg width="48px" height="44px" viewBox="0 0 48 44" version="1.1" xmlns="http://www.w3.org/2000/svg" xmlns:xlink="http://www.w3.org/1999/xlink">
    <!-- Generator: Sketch 49.3 (51167) - http://www.bohemiancoding.com/sketch -->
    <title>Me</title>
    <desc>Created with Sketch.</desc>
    <defs></defs>
    <g id="Page-1" stroke="none" stroke-width="1" fill="none" fill-rule="evenodd">
        <g id="Profile" transform="translate(-634.000000, -1264.000000)" stroke="#232427" stroke-width="3.6">
            <g id="toolbars" transform="translate(0.000000, 1237.000000)">
                <path d="M679.957467,68.1036294 C679.9296,67.5065285 679.774133,66.7842524 679.4896,65.9368008 C679.206533,65.0893493 678.810533,64.4159922 678.3016,63.9167296 C677.819067,63.4304162 676.856933,62.8951836 675.412267,62.3124708 C673.969067,61.7283191 672.333733,61.1139527 670.507733,60.4679328 C668.681733,59.8219129 667.335333,59.2838027 666.472933,58.8536024 C665.3964,58.3126147 664.561867,57.5169598 663.9664,56.4680767 C663.3724,55.4206324 663.074667,54.3329017 663.074667,53.2077623 C663.074667,52.443761 663.542533,51.5416352 664.4768,50.499946 C664.972533,49.9445703 665.438933,49.0827308 665.877467,47.9173051 C667.179867,47.4022157 667.831067,46.3259955 667.831067,44.6872055 C667.831067,43.4800547 667.625733,42.6110212 667.215067,42.0829826 C667.329467,41.3204201 667.457067,40.1463616 667.597867,38.562246 C667.6976,37.3824323 667.487867,36.2054962 666.9716,35.0314377 C666.455333,33.858818 665.749867,32.8343944 664.858133,31.9596058 C663.9664,31.0833783 662.9148,30.3726125 661.7048,29.822992 C660.4948,29.2748103 659.2452,29 658,29 C656.753333,29 655.5052,29.2748103 654.2952,29.822992 C653.083733,30.3726125 652.0336,31.0833783 651.141867,31.9596058 C650.248667,32.8343944 649.544667,33.858818 649.0284,35.0314377 C648.512133,36.2054962 648.3024,37.3824323 648.402133,38.562246 C648.542933,40.1463616 648.670533,41.3204201 648.783467,42.0829826 C648.3728,42.6110212 648.168933,43.4800547 648.168933,44.6872055 C648.168933,46.3259955 648.820133,47.4022157 650.122533,47.9173051 C650.561067,49.0827308 651.027467,49.9445703 651.5232,50.499946 C652.457467,51.5416352 652.925333,52.443761 652.925333,53.2077623 C652.925333,54.3329017 652.6276,55.4206324 652.0336,56.4680767 C651.438133,57.5169598 650.6036,58.3126147 649.527067,58.8536024 C648.6632,59.2838027 647.318267,59.8219129 645.492267,60.4679328 C643.666267,61.1139527 642.030933,61.7283191 640.586267,62.3124708 C639.143067,62.8951836 638.179467,63.4304162 637.6984,63.9167296 C637.189467,64.4159922 636.792,65.0893493 636.508933,65.9368008 C636.225867,66.7842524 636.0704,67.5065285 636.042533,68.1036294 L636,69 L680,69 L679.957467,68.1036294 Z" id="Me"></path>
            </g>
        </g>
    </g>
</svg>