<?xml version="1.0" encoding="UTF-8"?>
<svg width="39px" height="39px" viewBox="0 0 39 39" version="1.1" xmlns="http://www.w3.org/2000/svg" xmlns:xlink="http://www.w3.org/1999/xlink">
    <!-- Generator: Sketch 49.3 (51167) - http://www.bohemiancoding.com/sketch -->
    <title>Page 1</title>
    <desc>Created with Sketch.</desc>
    <defs>
        <polygon id="path-1" points="0 39 0 1.90429687e-05 38.9997372 1.90429688e-05 38.9997372 39 19.4998686 39"></polygon>
    </defs>
    <g id="Page-1" stroke="none" stroke-width="1" fill="none" fill-rule="evenodd">
        <g id="Detail-product" transform="translate(-31.000000, -861.000000)">
            <g id="Group" transform="translate(0.000000, 829.000000)">
                <g id="Page-1" transform="translate(31.000000, 32.000000)">
                    <path d="M10.9219957,13.8693064 L5.41187461,19.3794275 C1.49465977,23.2966424 1.49465977,29.6707049 5.41202695,33.5881482 C7.30969687,35.4858182 9.83281406,36.5308963 12.5164254,36.5308963 C15.2000367,36.5308963 17.7230777,35.4858182 19.6205953,33.5881482 L25.1307164,28.0781795 L10.9219957,13.8693064 Z M12.5164254,38.9287107 C9.19220859,38.9287107 6.06710508,37.6342459 3.71651719,35.283658 C-1.13585977,30.4312049 -1.13585977,22.53599 3.71628867,17.6837654 L10.0742789,11.3259275 C10.5424312,10.8578514 11.3016363,10.8578514 11.7697887,11.3259275 L27.6740191,27.2302342 C27.8988023,27.4549412 28.0252477,27.7600096 28.0252477,28.077951 C28.0252477,28.3958924 27.8988023,28.7008846 27.6740191,28.9256678 L21.3162574,35.2835057 C18.9655934,37.6340936 15.840566,38.9287107 12.5164254,38.9287107 L12.5164254,38.9287107 Z" id="Fill-3" fill="#FFFFFF"></path>
                    <path d="M9.30059355,23.3405783 C8.99377324,23.3405783 8.68687676,23.2235783 8.45287676,22.989426 C7.98472441,22.5212736 7.98472441,21.7620686 8.45287676,21.2937639 L21.2997205,8.44692012 C21.7678729,7.97876777 22.5270779,7.97876777 22.9953826,8.44692012 C23.4636873,8.91507246 23.463535,9.67427754 22.9953826,10.1425822 L10.1483104,22.989426 C9.91415801,23.2235783 9.6073377,23.3405783 9.30059355,23.3405783" id="Fill-8" fill="#FFFFFF"></path>
                    <g id="Group-7">
                        <mask id="mask-2" fill="white">
                            <use xlink:href="#path-1"></use>
                        </mask>
                        <g id="Clip-6"></g>
                        <path d="M12.4449457,39 C12.4447934,39 12.4451742,39 12.4449457,39 C9.12072891,39 5.99562539,37.7055352 3.6450375,35.3549473 C1.29452578,33.0044355 -1.52343753e-05,29.8792559 -1.52343753e-05,26.5550391 C-1.52343753e-05,23.2308223 1.29429727,20.1057188 3.64480898,17.755207 L17.7608285,3.6391875 C22.612977,-1.21303711 30.5081918,-1.21303711 35.3605687,3.6391875 C40.2127934,8.49156445 40.2127934,16.3867793 35.3605687,21.2390039 L31.7794242,24.8201484 C31.3112719,25.2883008 30.5519906,25.2883008 30.0839145,24.8201484 C29.6157621,24.3519961 29.6157621,23.592791 30.0839145,23.1246387 L33.6649828,19.5434941 C35.5626527,17.6458242 36.6077309,15.1228594 36.6077309,12.4391719 C36.6077309,9.75548437 35.5626527,7.23251953 33.6649828,5.33484961 C29.7476156,1.41748242 23.3737816,1.41748242 19.4561859,5.33484961 L5.34001406,19.4509453 C1.42279922,23.3683125 1.42279922,29.7422227 5.34016641,33.659666 C9.25753359,37.5770332 15.6316723,37.5770332 19.5487348,33.659666 C20.0168871,33.1915137 20.7760922,33.1915137 21.2443969,33.659666 C21.7125492,34.1278184 21.7125492,34.8870234 21.2443969,35.3553281 C18.8944184,37.7053828 15.768934,39 12.4449457,39" id="Fill-5" fill="#FFFFFF" mask="url(#mask-2)"></path>
                    </g>
                </g>
            </g>
        </g>
    </g>
</svg>