<?xml version="1.0" encoding="UTF-8"?>
<svg width="32px" height="41px" viewBox="0 0 32 41" version="1.1" xmlns="http://www.w3.org/2000/svg" xmlns:xlink="http://www.w3.org/1999/xlink">
    <!-- Generator: Sketch 49.3 (51167) - http://www.bohemiancoding.com/sketch -->
    <title>placeholder</title>
    <desc>Created with Sketch.</desc>
    <defs></defs>
    <g id="Page-1" stroke="none" stroke-width="1" fill="none" fill-rule="evenodd">
        <g id="Menu" transform="translate(-81.000000, -610.000000)" fill="#000000" fill-rule="nonzero">
            <g id="light-menu" transform="translate(50.000000, 85.000000)">
                <g id="menu">
                    <g transform="translate(0.000000, 328.000000)">
                        <g id="item-2" transform="translate(24.000000, 176.000000)">
                            <g id="placeholder" transform="translate(7.000000, 21.000000)">
                                <path d="M16,0.137634409 C7.22580645,0.137634409 0.0688172043,7.29462366 0.0688172043,16.1032258 C0.0688172043,17.1698925 0.172043011,18.2365591 0.378494624,19.2688172 C0.378494624,19.3376344 0.412903226,19.4064516 0.412903226,19.5096774 C2.16774194,27.3892473 14.5204301,39.2258065 15.0365591,39.7075269 C15.311828,39.9827957 15.655914,40.0860215 16,40.0860215 C16.344086,40.0860215 16.688172,39.9483871 16.9634409,39.7075269 C17.4795699,39.1913978 29.7634409,27.3892473 31.5182796,19.6817204 C31.5182796,19.6129032 31.5526882,19.544086 31.5526882,19.4752688 C31.7935484,18.3741935 31.8967742,17.2387097 31.8967742,16.1032258 C31.9311828,7.29462366 24.7741935,0.137634409 16,0.137634409 Z M28.8,18.9591398 C28.8,19.027957 28.8,18.9935484 28.8,19.0623656 C27.4924731,24.7741935 18.9247312,33.7892473 16,36.7139785 C13.0752688,33.7892473 4.47311828,24.7741935 3.1655914,18.9247312 C3.1655914,18.855914 3.1655914,18.8215054 3.1311828,18.7526882 C2.95913978,17.8580645 2.85591398,16.9634409 2.85591398,16.0688172 C2.85591398,8.84301075 8.73978495,2.92473118 15.9655914,2.92473118 C23.1913978,2.92473118 29.1096774,8.80860215 29.1096774,16.0688172 C29.1096774,17.0666667 29.0064516,18.0301075 28.8,18.9591398 Z" id="Shape"></path>
                                <path d="M16,9.11827957 C13.0408602,9.11827957 10.6666667,11.5268817 10.6666667,14.4516129 C10.6666667,17.3763441 13.0752688,19.7849462 16,19.7849462 C18.9247312,19.7849462 21.3333333,17.4107527 21.3333333,14.4516129 C21.3333333,11.4924731 18.9591398,9.11827957 16,9.11827957 Z M16,16.9978495 C14.5892473,16.9978495 13.4537634,15.8623656 13.4537634,14.4516129 C13.4537634,13.0408602 14.5892473,11.9053763 16,11.9053763 C17.4107527,11.9053763 18.5462366,13.0408602 18.5462366,14.4516129 C18.5462366,15.8623656 17.4107527,16.9978495 16,16.9978495 Z" id="Shape"></path>
                            </g>
                        </g>
                    </g>
                </g>
            </g>
        </g>
    </g>
</svg>