<?xml version="1.0" encoding="UTF-8"?>
<svg width="44px" height="44px" viewBox="0 0 44 44" version="1.1" xmlns="http://www.w3.org/2000/svg" xmlns:xlink="http://www.w3.org/1999/xlink">
    <!-- Generator: Sketch 49.3 (51167) - http://www.bohemiancoding.com/sketch -->
    <title>sort icon</title>
    <desc>Created with Sketch.</desc>
    <defs></defs>
    <g id="Page-1" stroke="none" stroke-width="1" fill="none" fill-rule="evenodd">
        <g id="Fill" transform="translate(-616.000000, -71.000000)">
            <g id="sort-icon" transform="translate(638.000000, 93.000000) scale(-1, -1) translate(-638.000000, -93.000000) translate(616.000000, 71.000000)">
                <rect id="bound" x="6.47058824" y="6.47058824" width="31.0588235" height="31.0588235"></rect>
                <rect id="body" fill="#F15A29" x="0" y="0" width="44" height="44" rx="4"></rect>
                <path d="M13.5043573,17.9019608 L13.5043573,35.1568627 C13.5043573,35.686286 13.9389045,36.1154684 14.4749455,36.1154684 C15.0109866,36.1154684 15.4455338,35.686286 15.4455338,35.1568627 L15.4455338,17.9019608 C15.4455338,17.3725375 15.0109866,16.9433551 14.4749455,16.9433551 C13.9389045,16.9433551 13.5043573,17.3725375 13.5043573,17.9019608 L13.5043573,17.9019608 Z M19.6121654,28.7594935 C19.9912037,28.3851347 20.6057462,28.3851347 20.9847845,28.7594935 C21.3638228,29.1338523 21.3638228,29.7408078 20.9847845,30.1151666 L15.1612551,35.8668006 C14.7822168,36.2411594 14.1676743,36.2411594 13.788636,35.8668006 L7.9651066,30.1151666 C7.58606832,29.7408078 7.58606832,29.1338523 7.9651066,28.7594935 C8.34414488,28.3851347 8.95868736,28.3851347 9.33772564,28.7594935 L15.1612551,34.5111275 L13.788636,34.5111275 L19.6121654,28.7594935 Z M28.5544662,27.3921569 L28.5544662,10.1372549 C28.5544662,9.60783161 28.9890134,9.17864924 29.5250545,9.17864924 C30.0610955,9.17864924 30.4956427,9.60783161 30.4956427,10.1372549 L30.4956427,27.3921569 C30.4956427,27.9215802 30.0610955,28.3507625 29.5250545,28.3507625 C28.9890134,28.3507625 28.5544662,27.9215802 28.5544662,27.3921569 Z M34.6622744,16.5346241 L28.8387449,10.7829902 L30.211364,10.7829902 L24.3878346,16.5346241 C24.0087963,16.9089829 23.3942538,16.9089829 23.0152155,16.5346241 C22.6361772,16.1602653 22.6361772,15.5533098 23.0152155,15.178951 L28.8387449,9.42731703 C29.2177832,9.05295823 29.8323257,9.05295823 30.211364,9.42731703 L36.0348934,15.178951 C36.4139317,15.5533098 36.4139317,16.1602653 36.0348934,16.5346241 C35.6558551,16.9089829 35.0413126,16.9089829 34.6622744,16.5346241 L34.6622744,16.5346241 Z" id="Shape-Copy-2" fill="#FFFEFB" fill-rule="nonzero"></path>
            </g>
        </g>
    </g>
</svg>