<?xml version="1.0" encoding="UTF-8"?>
<svg width="30px" height="29px" viewBox="0 0 30 29" version="1.1" xmlns="http://www.w3.org/2000/svg" xmlns:xlink="http://www.w3.org/1999/xlink">
    <!-- Generator: Sketch 49.3 (51167) - http://www.bohemiancoding.com/sketch -->
    <title>sort</title>
    <desc>Created with Sketch.</desc>
    <defs></defs>
    <g id="Page-1" stroke="none" stroke-width="1" fill="none" fill-rule="evenodd">
        <g id="Filter-Standard" transform="translate(-618.000000, -74.000000)">
            <g id="Navigation-Bar">
                <g id="sort" transform="translate(617.000000, 72.000000)">
                    <rect id="bound" x="0" y="0" width="32" height="32"></rect>
                    <path d="M7.24691358,11.7777778 L7.24691358,29.5555556 C7.24691358,30.101022 7.69462883,30.5432099 8.24691358,30.5432099 C8.79919833,30.5432099 9.24691358,30.101022 9.24691358,29.5555556 L9.24691358,11.7777778 C9.24691358,11.2323114 8.79919833,10.7901235 8.24691358,10.7901235 C7.69462883,10.7901235 7.24691358,11.2323114 7.24691358,11.7777778 L7.24691358,11.7777778 Z M13.5398068,22.9643266 C13.9303311,22.5786236 14.5634961,22.5786236 14.9540204,22.9643266 C15.3445447,23.3500296 15.3445447,23.9753778 14.9540204,24.3610808 L8.95402036,30.2870067 C8.56349607,30.6727097 7.93033109,30.6727097 7.5398068,30.2870067 L1.5398068,24.3610808 C1.14928251,23.9753778 1.14928251,23.3500296 1.5398068,22.9643266 C1.93033109,22.5786236 2.56349607,22.5786236 2.95402036,22.9643266 L8.95402036,28.8902526 L7.5398068,28.8902526 L13.5398068,22.9643266 Z M22.7530864,21.5555556 L22.7530864,3.77777778 C22.7530864,3.23231136 23.2008017,2.79012346 23.7530864,2.79012346 C24.3053712,2.79012346 24.7530864,3.23231136 24.7530864,3.77777778 L24.7530864,21.5555556 C24.7530864,22.101022 24.3053712,22.5432099 23.7530864,22.5432099 C23.2008017,22.5432099 22.7530864,22.101022 22.7530864,21.5555556 Z M29.0459796,10.3690067 L23.0459796,4.44308077 L24.4601932,4.44308077 L18.4601932,10.3690067 C18.0696689,10.7547097 17.4365039,10.7547097 17.0459796,10.3690067 C16.6554553,9.98330369 16.6554553,9.35795557 17.0459796,8.97225256 L23.0459796,3.04632664 C23.4365039,2.66062363 24.0696689,2.66062363 24.4601932,3.04632664 L30.4601932,8.97225256 C30.8507175,9.35795557 30.8507175,9.98330369 30.4601932,10.3690067 C30.0696689,10.7547097 29.4365039,10.7547097 29.0459796,10.3690067 L29.0459796,10.3690067 Z" id="Shape-Copy-2" fill="#FFF8EF" fill-rule="nonzero"></path>
                </g>
            </g>
        </g>
    </g>
</svg>