<?xml version="1.0" encoding="UTF-8"?>
<svg width="36px" height="45px" viewBox="0 0 36 45" version="1.1" xmlns="http://www.w3.org/2000/svg" xmlns:xlink="http://www.w3.org/1999/xlink">
    <!-- Generator: Sketch 49.3 (51167) - http://www.bohemiancoding.com/sketch -->
    <title>Stores</title>
    <desc>Created with Sketch.</desc>
    <defs>
        <path d="M469,47.1874962 C466.652583,47.1874962 464.75,45.3800424 464.75,43.1499969 C464.75,40.9199515 466.652583,39.1124977 469,39.1124977 C471.347417,39.1124977 473.25,40.9199515 473.25,43.1499969 C473.25,45.3800424 471.347417,47.1874962 469,47.1874962 L469,47.1874962 Z M469,36.4208316 C465.088583,36.4208316 461.916667,39.432806 461.916667,43.1499969 C461.916667,46.8671879 465.088583,49.8791623 469,49.8791623 C472.911417,49.8791623 476.083333,46.8671879 476.083333,43.1499969 C476.083333,39.432806 472.911417,36.4208316 469,36.4208316 L469,36.4208316 Z M469,66.0291593 C466.644083,66.0412718 454.833333,48.776925 454.833333,43.1499969 C454.833333,35.7183067 461.17575,29.6916662 469,29.6916662 C476.82425,29.6916662 483.166667,35.7183067 483.166667,43.1499969 C483.166667,48.7015584 471.319083,66.0412718 469,66.0291593 L469,66.0291593 Z M469,27 C459.61175,27 452,34.2311611 452,43.1499969 C452,49.9033873 466.17375,70.0814627 469,70.0666585 C471.782333,70.0814627 486,49.8118707 486,43.1499969 C486,34.2311611 478.38825,27 469,27 L469,27 Z" id="path-1"></path>
    </defs>
    <g id="Page-1" stroke="none" stroke-width="1" fill="none" fill-rule="evenodd">
        <g id="Near-By" transform="translate(-451.000000, -1263.000000)">
            <g id="toolbars" transform="translate(0.000000, 1237.000000)">
                <g id="Stores">
                    <use fill="#232427" fill-rule="evenodd" xlink:href="#path-1"></use>
                    <path stroke="#232427" stroke-width="0.6" d="M469,46.8874962 C471.185075,46.8874962 472.95,45.2108178 472.95,43.1499969 C472.95,41.0891761 471.185075,39.4124977 469,39.4124977 C466.814925,39.4124977 465.05,41.0891761 465.05,43.1499969 C465.05,45.2108178 466.814925,46.8874962 469,46.8874962 Z M469,36.1208316 C473.074239,36.1208316 476.383333,39.2640364 476.383333,43.1499969 C476.383333,47.0359575 473.074239,50.1791623 469,50.1791623 C464.925761,50.1791623 461.616667,47.0359575 461.616667,43.1499969 C461.616667,39.2640364 464.925761,36.1208316 469,36.1208316 Z M468.998458,65.7291633 L469.001567,65.7291634 C471.43442,65.7418701 482.866667,48.067246 482.866667,43.1499969 C482.866667,35.8870616 476.661415,29.9916662 469,29.9916662 C461.338585,29.9916662 455.133333,35.8870616 455.133333,43.1499969 C455.133333,48.1375862 466.525313,65.7418785 468.998458,65.7291633 Z M469,26.7 C478.550592,26.7 486.3,34.0619366 486.3,43.1499969 C486.3,49.3478138 472.382361,70.3846595 469.001571,70.3666544 C465.569004,70.3846345 451.7,49.4324837 451.7,43.1499969 C451.7,34.0619366 459.449408,26.7 469,26.7 Z"></path>
                </g>
            </g>
        </g>
    </g>
</svg>