<?xml version="1.0" encoding="UTF-8"?>
<svg width="86px" height="86px" viewBox="0 0 86 86" version="1.1" xmlns="http://www.w3.org/2000/svg" xmlns:xlink="http://www.w3.org/1999/xlink">
    <!-- Generator: Sketch 49.3 (51167) - http://www.bohemiancoding.com/sketch -->
    <title>winner</title>
    <desc>Created with Sketch.</desc>
    <defs></defs>
    <g id="Page-1" stroke="none" stroke-width="1" fill="none" fill-rule="evenodd">
        <g id="checkin-Success" transform="translate(-332.000000, -507.000000)" fill-rule="nonzero">
            <g id="bottom-sheet" transform="translate(50.000000, 429.000000)">
                <g id="winner" transform="translate(282.000000, 78.000000)">
                    <circle id="Oval" fill="#FFE461" cx="43" cy="43" r="43"></circle>
                    <path d="M69.8451016,5.43177344 L60.7207031,28.5437695 L56.9007578,27.0359141 L55.4449727,26.4597812 L64.5666836,3.34761719 C65.1428164,1.89183203 66.7907578,1.17544531 68.2492305,1.75174609 C68.5554375,1.87369141 68.8305703,2.0398125 69.0640469,2.24742187 C69.9489062,3.01033594 70.299457,4.27950781 69.8451016,5.43177344 Z" id="Shape" fill="#E5BFA3"></path>
                    <path d="M69.8451016,5.43177344 L60.7207031,28.5437695 L56.9007578,27.0359141 L65.988875,4.00689453 C66.4870703,2.75082422 67.7821094,2.04501953 69.0642148,2.24742187 C69.9489063,3.01033594 70.299457,4.27950781 69.8451016,5.43177344 Z" id="Shape" fill="#F9D6B9"></path>
                    <polygon id="Shape" fill="#34ABE0" points="60.721375 28.5425937 55.4441328 26.4594453 49.3700469 36.2278359 53.8694258 45.7173984"></polygon>
                    <path d="M50.2051875,80.0181289 L29.6511875,80.0181289 C27.4612109,80.0181289 25.6866211,78.2435391 25.6866211,76.0535625 L25.6866211,46.5562344 L40.6034219,46.5562344 L50.2051875,80.0181289 Z" id="Shape" fill="#F9D6B9"></path>
                    <path d="M28.4747344,76.0547383 L28.4747344,46.5570742 L25.6862852,46.5570742 L25.6862852,76.0545703 C25.6862852,78.244043 27.4612109,80.0189687 29.6506836,80.0189687 L32.4391328,80.0189687 C30.2494922,80.0189687 28.4747344,78.244043 28.4747344,76.0547383 Z" id="Shape" fill="#E5BFA3"></path>
                    <rect id="Rectangle-path" fill="#279FC9" x="25.6859492" y="52.3336875" width="23.8693672" height="1.89216797"></rect>
                    <g id="Group" transform="translate(25.531250, 35.945312)" fill="#34ABE0">
                        <path d="M28.3381758,0.0643320313 L28.3381758,16.3888789 L0.155371094,16.3888789 L0.155371094,10.6107539 C0.155371094,4.91039844 4.67557813,0.264382813 10.3283984,0.0643320313 C10.4538711,0.0582851563 10.5823672,0.0554296875 10.7108633,0.0554296875 L28.3381758,0.0643320313 Z" id="Shape"></path>
                        <path d="M28.3381758,6.20694922 L28.3381758,37.1026172 L5.82885156,37.1026172 L5.82885156,6.20694922 C5.82885156,3.38373047 7.7319375,1.0024375 10.3282305,0.282355469 C10.8541406,0.13303125 11.4067578,0.0552617188 11.9805391,0.0552617188 L22.1864883,0.0552617188 C22.7601016,0.0552617188 23.3128867,0.13303125 23.8387969,0.282355469 C26.4349219,1.0024375 28.3381758,3.38373047 28.3381758,6.20694922 Z" id="Shape"></path>
                    </g>
                    <g id="Group" transform="translate(25.531250, 26.371094)" fill="#279FC9">
                        <path d="M29.9128828,0.0883515625 L25.1251016,7.61587109 C24.3247305,8.87429297 22.9366367,9.63586328 21.4454102,9.63451953 C17.6583867,9.63132813 10.7106953,9.62981641 10.7106953,9.62981641 C10.5821992,9.62981641 10.4537031,9.63283984 10.3282305,9.63871875 L10.3282305,10.1350664 C10.3282305,13.8585977 13.2853203,16.9802969 17.0086836,17.0206094 C20.097125,17.0542031 22.7187813,15.0046484 23.5569453,12.1931875 C25.1904414,11.4317852 26.5232734,10.1474961 27.3444727,8.54322656 L31.3347383,0.747796875 L29.9128828,0.0883515625 Z" id="Shape"></path>
                        <path d="M14.3616641,9.63855078 C14.4871367,9.63250391 14.6156328,9.62964844 14.7441289,9.62964844 L10.7106953,9.62964844 C10.5821992,9.62964844 10.4537031,9.63267188 10.3282305,9.63855078 C4.67557813,9.83876953 0.155203125,14.4846172 0.155203125,20.1849727 L0.155203125,25.9630977 L4.18863672,25.9630977 L4.18863672,20.1849727 C4.18880469,14.4844492 8.70901172,9.83876953 14.3616641,9.63855078 Z" id="Shape"></path>
                    </g>
                    <g id="Group" transform="translate(28.722656, 19.484375)" fill="#E5BFA3">
                        <path d="M18.8539883,11.8224805 L18.8539883,17.1528008 C18.8539883,19.8932109 16.6324336,22.1147656 13.8920234,22.1147656 C11.1516133,22.1147656 8.93005859,19.8932109 8.93005859,17.1528008 L8.93005859,11.8224805 L18.8539883,11.8224805 Z" id="Shape"></path>
                        <circle id="Oval" cx="3.17981641" cy="3.10204687" r="3.06694141"></circle>
                        <circle id="Oval" cx="24.6043984" cy="3.10204687" r="3.06694141"></circle>
                    </g>
                    <path d="M53.6628242,13.8328984 L31.5667031,12.6566133 L31.5667031,24.9819922 C31.5667031,31.083793 36.5130469,36.0301367 42.6148477,36.0301367 C48.7166484,36.0301367 53.6629922,31.083793 53.6629922,24.9819922 L53.6629922,13.8328984 L53.6628242,13.8328984 Z" id="Shape" fill="#F9D6B9"></path>
                    <g id="Group" transform="translate(31.410156, 12.597656)" fill="#E5BFA3">
                        <path d="M11.2045234,13.3852617 C10.5872383,13.3852617 10.0870273,12.8848828 10.0870273,12.2677656 L10.0870273,3.50382813 L12.3221875,3.50382813 L12.3221875,12.2675977 C12.3220195,12.8848828 11.8216406,13.3852617 11.2045234,13.3852617 Z" id="Shape"></path>
                        <path d="M4.56488672,12.3843359 L4.56488672,0.293609375 L0.156210938,0.0589570312 L0.156210938,12.3843359 C0.156210938,18.4861367 5.10255469,23.4324805 11.2043555,23.4324805 C11.959207,23.4324805 12.6962539,23.3563906 13.4086094,23.2121055 C8.36333203,22.1901836 4.56488672,17.7309492 4.56488672,12.3843359 Z" id="Shape"></path>
                    </g>
                    <path d="M55.0070781,13.4200312 L55.0070781,18.9855078 C55.0070781,19.4381836 54.8238242,19.8476914 54.5275273,20.1438203 C54.222832,20.4490195 53.798207,20.6339531 53.3315898,20.6233711 C52.4359805,20.6032148 51.7306797,19.8481953 51.7306797,18.9525859 L51.7306797,18.1112305 C51.7306797,17.4445625 51.4607539,16.8418906 51.0236992,16.4051719 C50.5868125,15.9682852 49.9841406,15.6981914 49.3176406,15.6981914 C48.278082,15.6981914 47.2664063,16.0470625 46.455957,16.6991172 C45.4051445,17.5443359 44.0691211,18.0507617 42.6145117,18.0507617 C41.1604063,18.0507617 39.8243828,17.5443359 38.7735703,16.6991172 C38.6346602,16.587082 38.4895352,16.4846211 38.3395391,16.3910625 C38.3378594,16.3893828 38.3356758,16.388207 38.3339961,16.3871992 C38.0482813,16.2089844 37.7447617,16.0645312 37.4288125,15.9541758 C36.9437188,15.7855352 36.4312461,15.6980234 35.9108789,15.6980234 C34.5788867,15.6980234 33.4990156,16.7797422 33.4990156,18.1122383 L33.4990156,18.9861797 C33.4990156,19.4383516 33.3157617,19.8483633 33.0189609,20.1444922 C32.7226641,20.4407891 32.3131562,20.624043 31.8606484,20.624043 C30.9561367,20.624043 30.2227852,19.8906914 30.2227852,18.9856758 L30.2227852,13.4200312 C30.2227852,8.54675391 34.1727383,4.59629687 39.0460156,4.59629687 L46.1833438,4.59629687 C51.0564531,4.59629687 55.0070781,8.54675391 55.0070781,13.4200312 Z" id="Shape" fill="#5C5E70"></path>
                    <path d="M44.7839961,4.59612891 C39.9102148,4.59612891 35.9614375,8.54708984 35.9614375,13.4207031 L35.9614375,15.7007109 C35.9436328,15.6983594 35.9283477,15.6983594 35.9107109,15.6983594 C34.577543,15.6983594 33.4981758,16.7799102 33.4981758,18.1130781 L33.4981758,18.9850039 C33.4981758,19.4375117 33.3149219,19.8481953 33.0191289,20.1438203 C32.7211523,20.4396133 32.3128203,20.6228672 31.8603125,20.6228672 C30.9554648,20.6228672 30.2224492,19.8901875 30.2224492,18.9850039 L30.2224492,13.4207031 C30.2224492,8.54692188 34.1712266,4.59612891 39.0448398,4.59612891 C39.0448398,4.59612891 44.7839961,4.59612891 44.7839961,4.59612891 Z" id="Shape" fill="#474A59"></path>
                    <path d="M53.8699297,73.0470898 L53.8699297,84.61325 C50.6966641,85.4416719 47.3812969,85.913832 43.9658203,85.98925 L43.9658203,81.3716211 C43.9658203,80.9977227 43.8131367,80.6607773 43.5709258,80.4150391 C43.3251875,80.1711484 42.9882422,80.0184648 42.6143437,80.0184648 C41.8683945,80.0184648 41.2647148,80.6239922 41.2647148,81.3716211 L41.2647148,85.9647266 C37.8457109,85.8295117 34.5286641,85.2941953 31.3606055,84.4061445 L31.3606055,73.0470898 L53.8699297,73.0470898 Z" id="Shape" fill="#5C5E70"></path>
                    <g id="Group" transform="translate(31.242188, 72.898438)" fill="#474A59">
                        <path d="M15.2633203,9.64375781 L15.2633203,12.9609727 C14.4243164,13.0295039 13.5767461,13.0733437 12.7236328,13.0908125 L12.7236328,8.47318359 C12.7236328,8.09928516 12.5709492,7.76233984 12.3287383,7.51660156 C12.083,7.27271094 11.7460547,7.12002734 11.3721562,7.12002734 L12.7375742,7.12002734 C14.1330586,7.12002734 15.2633203,8.25196875 15.2633203,9.64375781 Z" id="Shape"></path>
                        <path d="M2.65105078,0.148652344 L2.65105078,12.1342305 C1.79625781,11.9516484 0.952046875,11.7410156 0.118417969,11.507707 C0.116738281,11.507707 0.113210937,11.5060273 0.111363281,11.5060273 L0.111363281,0.148820312 L2.65105078,0.148820312 L2.65105078,0.148652344 Z" id="Shape"></path>
                    </g>
                    <path d="M31.3542227,48.100707 L31.3542227,73.0477617 L34.0430664,73.0477617 L34.0430664,50.7895508 C34.0432344,49.304707 32.8394023,48.100707 31.3542227,48.100707 Z" id="Shape" fill="#279FC9"></path>
                    <path d="M46.762332,27.1573555 C46.762332,27.5666953 46.7023672,27.9619258 46.5822695,28.3326328 C46.4094297,28.9042305 46.1059102,29.4230859 45.7069844,29.8500625 C44.983543,30.6369961 43.9424727,31.1276328 42.7918867,31.1276328 C41.6413008,31.1276328 40.6002305,30.6371641 39.8767891,29.8500625 C39.4780313,29.4230859 39.1745117,28.9042305 39.0015039,28.3326328 C38.8814063,27.9620938 38.8216094,27.5668633 38.8216094,27.1573555 L46.762332,27.1573555 Z" id="Shape" fill="#FFFFFF"></path>
                    <g id="Group" transform="translate(35.777344, 20.660156)" fill="#5C5E70">
                        <path d="M13.5846406,2.176875 C13.5846406,1.06609766 12.6843281,0.165785156 11.5733828,0.165785156 C10.4624375,0.165785156 9.56229297,1.06609766 9.56229297,2.176875" id="Shape"></path>
                        <path d="M4.11237891,2.176875 C4.11237891,1.06609766 3.21206641,0.165785156 2.10128906,0.165785156 C0.990511719,0.165785156 0.0901992187,1.06609766 0.0901992187,2.176875" id="Shape"></path>
                    </g>
                    <path d="M71.3113008,4.42261719 C71.3113008,6.86757031 69.3304453,8.84842578 66.8854922,8.84842578 C66.6279961,8.84842578 66.3735234,8.82608594 66.128793,8.78174219 C64.0461484,8.42564844 62.462707,6.61007422 62.462707,4.42261719 C62.462707,1.9806875 64.4435625,3.55271368e-15 66.8853242,3.55271368e-15 C68.3192734,3.55271368e-15 69.5943242,0.680441406 70.3987266,1.73914844 C70.9711641,2.48325 71.3113008,3.41178125 71.3113008,4.42261719 Z" id="Shape" fill="#E5BFA3"></path>
                    <path d="M71.3113008,4.42261719 C71.3113008,6.86757031 69.3304453,8.84842578 66.8854922,8.84842578 C66.6279961,8.84842578 66.3735234,8.82608594 66.128793,8.78174219 C65.5565234,8.03780859 65.2163867,7.10608594 65.2163867,6.09508203 C65.2163867,3.65012891 67.1972422,1.67246484 69.6390039,1.67246484 C69.8998594,1.67246484 70.1541641,1.69480469 70.3988945,1.73914844 C70.9711641,2.48325 71.3113008,3.41178125 71.3113008,4.42261719 Z" id="Shape" fill="#F9D6B9"></path>
                    <polyline id="Shape" fill="#279FC9" points="54.7596602 27.777832 60.1400352 30.0002266 60.721375 28.5425938 55.4441328 26.4594453"></polyline>
                    <g id="Group" transform="translate(8.062500, 9.070312)" fill="#FFFFFF">
                        <path d="M5.97783984,23.5582891 L4.97439453,23.8263672 C4.75821875,23.8841484 4.58437109,24.0445586 4.50928906,24.2553594 L4.16125781,25.2337773 C3.97246094,25.7647266 3.25691406,25.848543 2.95037109,25.3757109 L2.38532422,24.5042891 C2.26354687,24.3165 2.05728125,24.2006016 1.83371484,24.1945547 L0.7955,24.166 C0.232300781,24.1505469 -0.0686992188,23.4959727 0.28621875,23.0582461 L0.940289062,22.2516602 C1.08121484,22.0779805 1.12757422,21.8458477 1.06441797,21.6311836 L0.770808594,20.6349609 C0.61140625,20.0946055 1.14117969,19.6059844 1.66692187,19.8083867 L2.63626953,20.1812773 C2.84505469,20.2617344 3.08021094,20.2341875 3.26464063,20.1075391 L4.12128125,19.5204883 C4.58605078,19.2020195 5.21442187,19.5547539 5.18435547,20.1174492 L5.12926172,21.1544883 C5.11733594,21.3778867 5.21610156,21.5928867 5.39364453,21.7292773 L6.21685937,22.3626875 C6.66332031,22.7063516 6.52205859,23.4129961 5.97783984,23.5582891 Z" id="Shape"></path>
                        <path d="M68.0920117,30.5059805 L67.1666719,30.0343242 C66.967293,29.9327031 66.730625,29.9357266 66.5341016,30.0423867 L65.6210234,30.5373906 C65.1256836,30.8059727 64.537457,30.3899141 64.6256406,29.8334336 L64.7882344,28.8078164 C64.8231719,28.5867695 64.747418,28.3626992 64.5849922,28.2086719 L63.8319883,27.493293 C63.4236563,27.1052852 63.6374805,26.4172852 64.1939609,26.3291016 L65.2197461,26.1666758 C65.440793,26.1317383 65.6304297,25.9901406 65.7268438,25.7882422 L66.1746484,24.8511445 C66.4175313,24.3427031 67.1379492,24.3336328 67.3937656,24.8356914 L67.8652539,25.7610312 C67.966875,25.9604102 68.1598711,26.0969687 68.3817578,26.1263633 L69.4112383,26.2625859 C69.9699023,26.3364922 70.2011953,27.0187812 69.8027734,27.4172031 L69.0684141,28.1515625 C68.9103555,28.3096211 68.8399766,28.535707 68.880625,28.7557461 L69.0690859,29.7769961 C69.1713789,30.3307891 68.5940703,30.7617969 68.0920117,30.5059805 Z" id="Shape"></path>
                        <path d="M59.2168789,53.1575742 L58.2396367,52.411625 C58.0290039,52.2508789 57.7528633,52.2041836 57.5012461,52.2864883 L56.3326875,52.6687852 C55.6987734,52.8760586 55.1021484,52.2665 55.3233633,51.6372891 L55.7306875,50.4772969 C55.8183672,50.2273594 55.7777187,49.9502109 55.6215078,49.7362188 L54.8970586,48.7430195 C54.5038438,48.2041758 54.8994102,47.4484844 55.5660781,47.4642734 L56.7951055,47.4931641 C57.0599922,47.4995469 57.3107695,47.375082 57.4661406,47.160418 L58.1867266,46.1643633 C58.5777578,45.6240078 59.4186094,45.7664453 59.6097578,46.4055664 L59.9619883,47.5833633 C60.0377422,47.8371641 60.2337617,48.0372148 60.4858828,48.1186797 L61.6557852,48.4964414 C62.2905391,48.7011953 62.4148359,49.5450703 61.866082,49.9243438 L60.8545742,50.6232617 C60.6367188,50.7739297 60.5068789,51.0220195 60.5073828,51.2869063 L60.5099023,52.5164375 C60.5110781,53.1832734 59.7471563,53.5622109 59.2168789,53.1575742 Z" id="Shape"></path>
                        <path d="M12.2585273,4.52491016 L11.6765156,4.08063281 C11.5512109,3.98505859 11.3867695,3.95700781 11.2369414,4.00605469 L10.5410469,4.23365234 C10.1634531,4.35727734 9.80836719,3.99412891 9.93988672,3.61939062 L10.1824336,2.92853516 C10.2346719,2.77971484 10.2103164,2.61476953 10.1174297,2.48728125 L9.68608594,1.89586328 C9.4519375,1.57504297 9.68742969,1.12505469 10.0845078,1.13429297 L10.8163477,1.15142578 C10.9739023,1.15512109 11.1235625,1.08104688 11.2159453,0.953222656 L11.6451055,0.359957031 C11.8780781,0.038296875 12.378793,0.122953125 12.4925078,0.503570312 L12.7023008,1.20500781 C12.7474844,1.35617969 12.8640547,1.47526953 13.0142187,1.5238125 L13.7109531,1.74872266 C14.0890508,1.87066797 14.162957,2.37323047 13.8362578,2.59914844 L13.2339219,3.01554297 C13.10425,3.10523828 13.0268164,3.25305078 13.0271523,3.41077344 L13.0284961,4.14278125 C13.0295039,4.54019531 12.5743086,4.76577734 12.2585273,4.52491016 Z" id="Shape"></path>
                        <path d="M65.0114648,12.7264883 L64.0080195,12.9945664 C63.7918437,13.0523477 63.6179961,13.2127578 63.5429141,13.4235586 L63.1948828,14.4019766 C63.0060859,14.9329258 62.2905391,15.0167422 61.9839961,14.5439102 L61.4189492,13.6724883 C61.2971719,13.4846992 61.0909063,13.3688008 60.8673398,13.3627539 L59.829125,13.3341992 C59.2659258,13.3187461 58.9649258,12.6641719 59.3198438,12.2264453 L59.9739141,11.4198594 C60.1148398,11.2461797 60.1611992,11.0140469 60.098043,10.7993828 L59.8044336,9.80316016 C59.6450313,9.26280469 60.1748047,8.77418359 60.7005469,8.97658594 L61.6698945,9.34947656 C61.8786797,9.42993359 62.1138359,9.40238672 62.2982656,9.27573828 L63.1549063,8.6886875 C63.6196758,8.37021875 64.2480469,8.72295313 64.2179805,9.28564844 L64.1628867,10.3226875 C64.1509609,10.5460859 64.2497266,10.7610859 64.4272695,10.8974766 L65.2504844,11.5308867 C65.6972812,11.8745508 65.5560195,12.5810273 65.0114648,12.7264883 Z" id="Shape"></path>
                        <path d="M7.80517188,46.520793 L6.95424219,46.7480547 C6.77082031,46.7971016 6.62334375,46.9329883 6.55985156,47.111875 L6.2645625,47.9416406 C6.10448828,48.3917969 5.49761719,48.4630156 5.23760156,48.0620742 L4.75838672,47.3230117 C4.65525391,47.1637773 4.48023047,47.0655156 4.29042578,47.0603086 L3.40993359,47.0361211 C2.93223047,47.0230195 2.67708594,46.4678828 2.97808594,46.0966719 L3.53288672,45.4125352 C3.65248047,45.2650586 3.69178516,45.0683672 3.63820313,44.8862891 L3.38910547,44.0414063 C3.25389062,43.5830195 3.70303906,43.1688086 4.14899609,43.3403047 L4.97103516,43.6565898 C5.14807422,43.7246172 5.34745312,43.7012695 5.50383203,43.5941055 L6.23046484,43.0962461 C6.6246875,42.8261523 7.15748437,43.1251367 7.13212109,43.6023359 L7.08542578,44.4818203 C7.07534766,44.6712891 7.15916406,44.8535352 7.30949609,44.9694336 L8.00757422,45.5064297 C8.38667969,45.7981914 8.26691797,46.3973359 7.80517188,46.520793 Z" id="Shape"></path>
                        <path d="M14.6226875,22.499582 C14.1910078,22.499582 13.8409609,22.1495352 13.8409609,21.7178555 L13.8409609,19.4013984 C13.8409609,18.9697188 14.1910078,18.6196719 14.6226875,18.6196719 C15.0543672,18.6196719 15.4044141,18.9697188 15.4044141,19.4013984 L15.4044141,21.7178555 C15.4044141,22.1495352 15.0545352,22.499582 14.6226875,22.499582 Z" id="Shape"></path>
                        <path d="M14.6226875,28.7115703 C14.1910078,28.7115703 13.8409609,28.3615234 13.8409609,27.9298437 L13.8409609,25.6135547 C13.8409609,25.181875 14.1910078,24.8318281 14.6226875,24.8318281 C15.0543672,24.8318281 15.4044141,25.181875 15.4044141,25.6135547 L15.4044141,27.9300117 C15.4044141,28.3616914 15.0545352,28.7115703 14.6226875,28.7115703 Z" id="Shape"></path>
                        <path d="M18.8869102,24.4473477 L16.5704531,24.4473477 C16.1387734,24.4473477 15.7887266,24.0973008 15.7887266,23.6656211 C15.7887266,23.2339414 16.1387734,22.8838945 16.5704531,22.8838945 L18.8869102,22.8838945 C19.3185898,22.8838945 19.6686367,23.2339414 19.6686367,23.6656211 C19.6686367,24.0973008 19.3185898,24.4473477 18.8869102,24.4473477 Z" id="Shape"></path>
                        <path d="M12.6749219,24.4473477 L10.3584648,24.4473477 C9.92678516,24.4473477 9.57673828,24.0973008 9.57673828,23.6656211 C9.57673828,23.2339414 9.92678516,22.8838945 10.3584648,22.8838945 L12.6749219,22.8838945 C13.1066016,22.8838945 13.4566484,23.2339414 13.4566484,23.6656211 C13.4566484,24.0973008 13.1066016,24.4473477 12.6749219,24.4473477 Z" id="Shape"></path>
                        <path d="M56.5085508,34.8372227 C56.0768711,34.8372227 55.7268242,34.4871758 55.7268242,34.0554961 L55.7268242,31.7390391 C55.7268242,31.3073594 56.0768711,30.9573125 56.5085508,30.9573125 C56.9402305,30.9573125 57.2902773,31.3073594 57.2902773,31.7390391 L57.2902773,34.0554961 C57.2902773,34.4873437 56.9403984,34.8372227 56.5085508,34.8372227 Z" id="Shape"></path>
                        <path d="M56.5085508,41.0492109 C56.0768711,41.0492109 55.7268242,40.699332 55.7268242,40.2674844 L55.7268242,37.9510273 C55.7268242,37.5193477 56.0768711,37.1693008 56.5085508,37.1693008 C56.9402305,37.1693008 57.2902773,37.5191797 57.2902773,37.9510273 L57.2902773,40.2674844 C57.2902773,40.699332 56.9403984,41.0492109 56.5085508,41.0492109 Z" id="Shape"></path>
                        <path d="M60.7727734,36.7849883 L58.4563164,36.7849883 C58.0246367,36.7849883 57.6745898,36.4349414 57.6745898,36.0032617 C57.6745898,35.571582 58.0246367,35.2215352 58.4563164,35.2215352 L60.7727734,35.2215352 C61.2044531,35.2215352 61.5545,35.571582 61.5545,36.0032617 C61.5545,36.4349414 61.2044531,36.7849883 60.7727734,36.7849883 Z" id="Shape"></path>
                        <path d="M54.5607852,36.7849883 L52.2443281,36.7849883 C51.8126484,36.7849883 51.4626016,36.4349414 51.4626016,36.0032617 C51.4626016,35.571582 51.8124805,35.2215352 52.2443281,35.2215352 L54.5607852,35.2215352 C54.9924648,35.2215352 55.3425117,35.571582 55.3425117,36.0032617 C55.3425117,36.4349414 54.9924648,36.7849883 54.5607852,36.7849883 Z" id="Shape"></path>
                    </g>
                </g>
            </g>
        </g>
    </g>
</svg>